ISO-10303-21;
HEADER;
FILE_DESCRIPTION (( 'STEP AP214' ),
    '1' );
FILE_NAME ('display_button.STEP',
    '2026-09-20T12:08:53',
    ( '' ),
    ( '' ),
    'SwSTEP 2.0',
    'SolidWorks 2018',
    '' );
FILE_SCHEMA (( 'AUTOMOTIVE_DESIGN' ));
ENDSEC;

DATA;
#1 = ORIENTED_EDGE ( 'NONE', *, *, #139, .F. ) ;
#2 = ORIENTED_EDGE ( 'NONE', *, *, #130, .F. ) ;
#3 = FILL_AREA_STYLE ('',( #161 ) ) ;
#4 = CARTESIAN_POINT ( 'NONE',  ( 89.00000000000002842, 12.45000000000000817, -37.18999999999996930 ) ) ;
#5 = PRODUCT_RELATED_PRODUCT_CATEGORY ( 'part', '', ( #236 ) ) ;
#6 = LINE ( 'NONE', #67, #274 ) ;
#7 = CARTESIAN_POINT ( 'NONE',  ( 87.80000000000001137, 14.65000000000002167, -37.18999999999996930 ) ) ;
#8 = PLANE ( 'NONE',  #95 ) ;
#9 = EDGE_LOOP ( 'NONE', ( #275, #135, #168, #56 ) ) ;
#10 = ORIENTED_EDGE ( 'NONE', *, *, #334, .F. ) ;
#11 = DIRECTION ( 'NONE',  ( 1.000000000000000000, 0.000000000000000000, 0.000000000000000000 ) ) ;
#12 = DIRECTION ( 'NONE',  ( 0.000000000000000000, 1.000000000000000000, 0.000000000000000000 ) ) ;
#13 = LINE ( 'NONE', #121, #201 ) ;
#14 = EDGE_CURVE ( 'NONE', #314, #195, #277, .T. ) ;
#15 = EDGE_LOOP ( 'NONE', ( #319, #10, #223, #259 ) ) ;
#16 = VERTEX_POINT ( 'NONE', #90 ) ;
#17 = CARTESIAN_POINT ( 'NONE',  ( 87.40000000000001990, 11.55000000000002736, -32.58999999999996078 ) ) ;
#18 = SURFACE_STYLE_FILL_AREA ( #41 ) ;
#19 = ORIENTED_EDGE ( 'NONE', *, *, #149, .T. ) ;
#20 = CARTESIAN_POINT ( 'NONE',  ( 87.80000000000001137, 0.000000000000000000, 0.000000000000000000 ) ) ;
#21 = PLANE ( 'NONE',  #293 ) ;
#22 = CARTESIAN_POINT ( 'NONE',  ( 87.40000000000001990, 14.65000000000001990, -32.58999999999996078 ) ) ;
#23 = FACE_OUTER_BOUND ( 'NONE', #71, .T. ) ;
#24 = ORIENTED_EDGE ( 'NONE', *, *, #46, .T. ) ;
#25 =( LENGTH_UNIT ( ) NAMED_UNIT ( * ) SI_UNIT ( .MILLI., .METRE. ) );
#26 = AXIS2_PLACEMENT_3D ( 'NONE', #270, #34, #163 ) ;
#27 =( NAMED_UNIT ( * ) SI_UNIT ( $, .STERADIAN. ) SOLID_ANGLE_UNIT ( ) );
#28 = LINE ( 'NONE', #197, #252 ) ;
#29 = ORIENTED_EDGE ( 'NONE', *, *, #118, .T. ) ;
#30 = DIRECTION ( 'NONE',  ( 0.000000000000000000, 0.000000000000000000, 1.000000000000000000 ) ) ;
#31 = DIRECTION ( 'NONE',  ( 1.000000000000000000, 0.000000000000000000, 0.000000000000000000 ) ) ;
#32 = CARTESIAN_POINT ( 'NONE',  ( 87.80000000000001137, 11.55000000000002558, -37.18999999999996930 ) ) ;
#33 = ORIENTED_EDGE ( 'NONE', *, *, #257, .F. ) ;
#34 = DIRECTION ( 'NONE',  ( 0.000000000000000000, -1.000000000000000000, -3.771137991253922164E-16 ) ) ;
#35 = PLANE ( 'NONE',  #192 ) ;
#36 = LINE ( 'NONE', #178, #247 ) ;
#37 = ORIENTED_EDGE ( 'NONE', *, *, #327, .T. ) ;
#38 = DIRECTION ( 'NONE',  ( 0.000000000000000000, 0.000000000000000000, -1.000000000000000000 ) ) ;
#39 = EDGE_CURVE ( 'NONE', #188, #185, #184, .T. ) ;
#40 = DIRECTION ( 'NONE',  ( 0.000000000000000000, -3.771137991253923150E-16, -1.000000000000000000 ) ) ;
#41 = FILL_AREA_STYLE ('',( #96 ) ) ;
#42 = PRESENTATION_STYLE_ASSIGNMENT (( #266 ) ) ;
#43 = DIRECTION ( 'NONE',  ( -0.000000000000000000, 0.000000000000000000, -1.000000000000000000 ) ) ;
#44 = FACE_OUTER_BOUND ( 'NONE', #48, .T. ) ;
#45 = VERTEX_POINT ( 'NONE', #287 ) ;
#46 = EDGE_CURVE ( 'NONE', #79, #65, #119, .T. ) ;
#47 = VECTOR ( 'NONE', #193, 1000.000000000000000 ) ;
#48 = EDGE_LOOP ( 'NONE', ( #154, #179, #175, #109 ) ) ;
#49 = DIRECTION ( 'NONE',  ( 1.000000000000000000, 0.000000000000000000, -0.000000000000000000 ) ) ;
#50 = CARTESIAN_POINT ( 'NONE',  ( 87.80000000000001137, 14.65000000000001990, -32.58999999999996078 ) ) ;
#51 = SURFACE_SIDE_STYLE ('',( #18 ) ) ;
#52 = FACE_OUTER_BOUND ( 'NONE', #244, .T. ) ;
#53 = ORIENTED_EDGE ( 'NONE', *, *, #110, .F. ) ;
#54 = CARTESIAN_POINT ( 'NONE',  ( 87.80000000000001137, 11.55000000000002558, -37.18999999999996930 ) ) ;
#55 =( LENGTH_UNIT ( ) NAMED_UNIT ( * ) SI_UNIT ( .MILLI., .METRE. ) );
#56 = ORIENTED_EDGE ( 'NONE', *, *, #14, .T. ) ;
#57 = APPLICATION_CONTEXT ( 'automotive_design' ) ;
#58 = MECHANICAL_DESIGN_GEOMETRIC_PRESENTATION_REPRESENTATION (  '', ( #199 ), #326 ) ;
#59 = CARTESIAN_POINT ( 'NONE',  ( 87.40000000000001990, 11.55000000000002558, -37.18999999999996930 ) ) ;
#60 = LINE ( 'NONE', #4, #173 ) ;
#61 = CARTESIAN_POINT ( 'NONE',  ( 89.00000000000002842, 12.45000000000000817, -32.58999999999996078 ) ) ;
#62 = DIRECTION ( 'NONE',  ( -0.000000000000000000, 1.000000000000000000, 0.000000000000000000 ) ) ;
#63 = ADVANCED_FACE ( 'NONE', ( #310 ), #221, .F. ) ;
#64 = PRODUCT_DEFINITION_CONTEXT ( 'detailed design', #107, 'design' ) ;
#65 = VERTEX_POINT ( 'NONE', #32 ) ;
#66 = CARTESIAN_POINT ( 'NONE',  ( 87.80000000000001137, 0.000000000000000000, 0.000000000000000000 ) ) ;
#67 = CARTESIAN_POINT ( 'NONE',  ( 89.00000000000002842, 12.45000000000000817, -32.58999999999996078 ) ) ;
#68 = VECTOR ( 'NONE', #253, 1000.000000000000000 ) ;
#69 = ADVANCED_FACE ( 'NONE', ( #23 ), #8, .T. ) ;
#70 = DIRECTION ( 'NONE',  ( 1.000000000000000000, 0.000000000000000000, -0.000000000000000000 ) ) ;
#71 = EDGE_LOOP ( 'NONE', ( #227, #194, #285, #87, #127, #177, #320, #234 ) ) ;
#72 = ADVANCED_FACE ( 'NONE', ( #284 ), #220, .F. ) ;
#73 = DIRECTION ( 'NONE',  ( 0.000000000000000000, -3.771137991253923150E-16, 1.000000000000000000 ) ) ;
#74 = PRODUCT_DEFINITION_FORMATION_WITH_SPECIFIED_SOURCE ( 'ANY', '', #236, .NOT_KNOWN. ) ;
#75 =( LENGTH_UNIT ( ) NAMED_UNIT ( * ) SI_UNIT ( .MILLI., .METRE. ) );
#76 = FACE_OUTER_BOUND ( 'NONE', #9, .T. ) ;
#77 = SURFACE_STYLE_FILL_AREA ( #3 ) ;
#78 = DIRECTION ( 'NONE',  ( -1.000000000000000000, 0.000000000000000000, -0.000000000000000000 ) ) ;
#79 = VERTEX_POINT ( 'NONE', #113 ) ;
#80 = CARTESIAN_POINT ( 'NONE',  ( 87.80000000000001137, 11.55000000000002736, -32.58999999999996078 ) ) ;
#81 = PRESENTATION_STYLE_ASSIGNMENT (( #103 ) ) ;
#82 = VERTEX_POINT ( 'NONE', #289 ) ;
#83 = STYLED_ITEM ( 'NONE', ( #81 ), #204 ) ;
#84 = CARTESIAN_POINT ( 'NONE',  ( 87.40000000000001990, 14.65000000000001990, -32.58999999999996078 ) ) ;
#85 = DIRECTION ( 'NONE',  ( 0.000000000000000000, -1.000000000000000000, 0.000000000000000000 ) ) ;
#86 = LINE ( 'NONE', #54, #123 ) ;
#87 = ORIENTED_EDGE ( 'NONE', *, *, #130, .T. ) ;
#88 = VERTEX_POINT ( 'NONE', #250 ) ;
#89 = UNCERTAINTY_MEASURE_WITH_UNIT (LENGTH_MEASURE( 1.000000000000000082E-05 ), #25, 'distance_accuracy_value', 'NONE');
#90 = CARTESIAN_POINT ( 'NONE',  ( 89.00000000000002842, 13.85000000000000853, -37.18999999999996930 ) ) ;
#91 = PLANE ( 'NONE',  #281 ) ;
#92 = DIRECTION ( 'NONE',  ( -1.000000000000000000, -0.000000000000000000, -0.000000000000000000 ) ) ;
#93 = VECTOR ( 'NONE', #38, 1000.000000000000000 ) ;
#94 = ORIENTED_EDGE ( 'NONE', *, *, #125, .T. ) ;
#95 = AXIS2_PLACEMENT_3D ( 'NONE', #315, #191, #31 ) ;
#96 = FILL_AREA_STYLE_COLOUR ( '', #182 ) ;
#97 = PLANE ( 'NONE',  #290 ) ;
#98 = LINE ( 'NONE', #212, #190 ) ;
#99 = VERTEX_POINT ( 'NONE', #7 ) ;
#100 = VECTOR ( 'NONE', #243, 1000.000000000000000 ) ;
#101 = CARTESIAN_POINT ( 'NONE',  ( 87.80000000000001137, 11.55000000000002736, -32.58999999999996078 ) ) ;
#102 = ORIENTED_EDGE ( 'NONE', *, *, #155, .F. ) ;
#103 = SURFACE_STYLE_USAGE ( .BOTH. , #51 ) ;
#104 = LINE ( 'NONE', #224, #237 ) ;
#105 = ORIENTED_EDGE ( 'NONE', *, *, #205, .F. ) ;
#106 = PRODUCT_CONTEXT ( 'NONE', #57, 'mechanical' ) ;
#107 = APPLICATION_CONTEXT ( 'automotive_design' ) ;
#108 = VECTOR ( 'NONE', #318, 1000.000000000000000 ) ;
#109 = ORIENTED_EDGE ( 'NONE', *, *, #225, .T. ) ;
#110 = EDGE_CURVE ( 'NONE', #185, #303, #292, .T. ) ;
#111 = EDGE_CURVE ( 'NONE', #99, #314, #307, .T. ) ;
#112 = VECTOR ( 'NONE', #249, 1000.000000000000000 ) ;
#113 = CARTESIAN_POINT ( 'NONE',  ( 87.40000000000001990, 11.55000000000002558, -37.18999999999996930 ) ) ;
#114 = VECTOR ( 'NONE', #85, 1000.000000000000000 ) ;
#115 = ORIENTED_EDGE ( 'NONE', *, *, #39, .F. ) ;
#116 = ADVANCED_FACE ( 'NONE', ( #217 ), #91, .F. ) ;
#117 = CARTESIAN_POINT ( 'NONE',  ( 87.40000000000001990, 11.55000000000002736, -32.58999999999996078 ) ) ;
#118 = EDGE_CURVE ( 'NONE', #141, #88, #299, .T. ) ;
#119 = LINE ( 'NONE', #59, #165 ) ;
#120 = ORIENTED_EDGE ( 'NONE', *, *, #136, .T. ) ;
#121 = CARTESIAN_POINT ( 'NONE',  ( 87.80000000000001137, 13.85000000000000853, -37.18999999999996930 ) ) ;
#122 = CARTESIAN_POINT ( 'NONE',  ( 87.40000000000001990, 14.65000000000002167, -37.18999999999996930 ) ) ;
#123 = VECTOR ( 'NONE', #131, 1000.000000000000000 ) ;
#124 = EDGE_LOOP ( 'NONE', ( #202, #2, #329, #24 ) ) ;
#125 = EDGE_CURVE ( 'NONE', #269, #195, #13, .T. ) ;
#126 = ADVANCED_FACE ( 'NONE', ( #265 ), #35, .T. ) ;
#127 = ORIENTED_EDGE ( 'NONE', *, *, #208, .F. ) ;
#128 = VERTEX_POINT ( 'NONE', #196 ) ;
#129 = CARTESIAN_POINT ( 'NONE',  ( 87.80000000000001137, 13.85000000000000853, -37.18999999999996930 ) ) ;
#130 = EDGE_CURVE ( 'NONE', #303, #301, #167, .T. ) ;
#131 = DIRECTION ( 'NONE',  ( 0.000000000000000000, 1.000000000000000000, 0.000000000000000000 ) ) ;
#132 = LINE ( 'NONE', #50, #159 ) ;
#133 = EDGE_CURVE ( 'NONE', #128, #82, #295, .T. ) ;
#134 = DIRECTION ( 'NONE',  ( 1.000000000000000000, 0.000000000000000000, 0.000000000000000000 ) ) ;
#135 = ORIENTED_EDGE ( 'NONE', *, *, #155, .T. ) ;
#136 = EDGE_CURVE ( 'NONE', #45, #141, #28, .T. ) ;
#137 = LINE ( 'NONE', #22, #313 ) ;
#138 = EDGE_LOOP ( 'NONE', ( #33, #148, #233, #19, #102, #105, #238, #254 ) ) ;
#139 = EDGE_CURVE ( 'NONE', #45, #195, #164, .T. ) ;
#140 = CARTESIAN_POINT ( 'NONE',  ( 87.80000000000001137, 14.65000000000002167, -37.18999999999996930 ) ) ;
#141 = VERTEX_POINT ( 'NONE', #230 ) ;
#142 = CARTESIAN_POINT ( 'NONE',  ( 87.40000000000001990, 14.65000000000001990, -32.58999999999996078 ) ) ;
#143 = CARTESIAN_POINT ( 'NONE',  ( 89.00000000000002842, 12.45000000000000817, -32.58999999999996078 ) ) ;
#144 = AXIS2_PLACEMENT_3D ( 'NONE', #61, #62, #251 ) ;
#145 = DIRECTION ( 'NONE',  ( 1.000000000000000000, 0.000000000000000000, -0.000000000000000000 ) ) ;
#146 = COLOUR_RGB ( '',0.7921568627450980005, 0.8196078431372548767, 0.9333333333333333481 ) ;
#147 = UNCERTAINTY_MEASURE_WITH_UNIT (LENGTH_MEASURE( 1.000000000000000082E-05 ), #55, 'distance_accuracy_value', 'NONE');
#148 = ORIENTED_EDGE ( 'NONE', *, *, #46, .F. ) ;
#149 = EDGE_CURVE ( 'NONE', #188, #99, #153, .T. ) ;
#150 = DIRECTION ( 'NONE',  ( 0.000000000000000000, -3.771137991253922657E-16, -1.000000000000000000 ) ) ;
#151 = DIRECTION ( 'NONE',  ( 1.000000000000000000, 0.000000000000000000, 0.000000000000000000 ) ) ;
#152 = DIRECTION ( 'NONE',  ( 0.000000000000000000, 1.000000000000000000, 0.000000000000000000 ) ) ;
#153 = LINE ( 'NONE', #122, #232 ) ;
#154 = ORIENTED_EDGE ( 'NONE', *, *, #111, .F. ) ;
#155 = EDGE_CURVE ( 'NONE', #269, #99, #258, .T. ) ;
#156 = DIRECTION ( 'NONE',  ( 0.000000000000000000, 0.000000000000000000, -1.000000000000000000 ) ) ;
#157 = ADVANCED_BREP_SHAPE_REPRESENTATION ( 'display_button', ( #204, #321 ), #189 ) ;
#158 = DIRECTION ( 'NONE',  ( -1.000000000000000000, -0.000000000000000000, -0.000000000000000000 ) ) ;
#159 = VECTOR ( 'NONE', #333, 1000.000000000000000 ) ;
#160 = EDGE_LOOP ( 'NONE', ( #219, #267, #53, #115 ) ) ;
#161 = FILL_AREA_STYLE_COLOUR ( '', #146 ) ;
#162 = DIRECTION ( 'NONE',  ( 0.000000000000000000, -1.000000000000000000, 0.000000000000000000 ) ) ;
#163 = DIRECTION ( 'NONE',  ( 0.000000000000000000, 3.771137991253922164E-16, -1.000000000000000000 ) ) ;
#164 = LINE ( 'NONE', #255, #331 ) ;
#165 = VECTOR ( 'NONE', #317, 1000.000000000000000 ) ;
#166 = CARTESIAN_POINT ( 'NONE',  ( 87.40000000000001990, 14.65000000000002167, -37.18999999999996930 ) ) ;
#167 = LINE ( 'NONE', #117, #108 ) ;
#168 = ORIENTED_EDGE ( 'NONE', *, *, #111, .T. ) ;
#169 = DIRECTION ( 'NONE',  ( -0.000000000000000000, 0.000000000000000000, -1.000000000000000000 ) ) ;
#170 = ADVANCED_FACE ( 'NONE', ( #76 ), #97, .T. ) ;
#171 = DIRECTION ( 'NONE',  ( 1.000000000000000000, 0.000000000000000000, -0.000000000000000000 ) ) ;
#172 =( GEOMETRIC_REPRESENTATION_CONTEXT ( 3 ) GLOBAL_UNCERTAINTY_ASSIGNED_CONTEXT ( ( #279 ) ) GLOBAL_UNIT_ASSIGNED_CONTEXT ( ( #75, #332, #282 ) ) REPRESENTATION_CONTEXT ( 'NONE', 'WORKASPACE' ) );
#173 = VECTOR ( 'NONE', #158, 1000.000000000000000 ) ;
#174 = ADVANCED_FACE ( 'NONE', ( #242 ), #200, .T. ) ;
#175 = ORIENTED_EDGE ( 'NONE', *, *, #39, .T. ) ;
#176 = EDGE_CURVE ( 'NONE', #88, #16, #104, .T. ) ;
#177 = ORIENTED_EDGE ( 'NONE', *, *, #183, .F. ) ;
#178 = CARTESIAN_POINT ( 'NONE',  ( 87.40000000000001990, 11.55000000000002558, -37.18999999999996930 ) ) ;
#179 = ORIENTED_EDGE ( 'NONE', *, *, #149, .F. ) ;
#180 = PRODUCT_DEFINITION ( 'UNKNOWN', '', #74, #64 ) ;
#181 = DIRECTION ( 'NONE',  ( -0.000000000000000000, 1.000000000000000000, 3.771137991253923150E-16 ) ) ;
#182 = COLOUR_RGB ( '',0.7921568627450980005, 0.8196078431372548767, 0.9333333333333333481 ) ;
#183 = EDGE_CURVE ( 'NONE', #141, #128, #6, .T. ) ;
#184 = LINE ( 'NONE', #166, #47 ) ;
#185 = VERTEX_POINT ( 'NONE', #142 ) ;
#186 =( NAMED_UNIT ( * ) SI_UNIT ( $, .STERADIAN. ) SOLID_ANGLE_UNIT ( ) );
#187 = VECTOR ( 'NONE', #162, 1000.000000000000000 ) ;
#188 = VERTEX_POINT ( 'NONE', #226 ) ;
#189 =( GEOMETRIC_REPRESENTATION_CONTEXT ( 3 ) GLOBAL_UNCERTAINTY_ASSIGNED_CONTEXT ( ( #89 ) ) GLOBAL_UNIT_ASSIGNED_CONTEXT ( ( #25, #214, #27 ) ) REPRESENTATION_CONTEXT ( 'NONE', 'WORKASPACE' ) );
#190 = VECTOR ( 'NONE', #150, 1000.000000000000000 ) ;
#191 = DIRECTION ( 'NONE',  ( -0.000000000000000000, 0.000000000000000000, 1.000000000000000000 ) ) ;
#192 = AXIS2_PLACEMENT_3D ( 'NONE', #272, #70, #169 ) ;
#193 = DIRECTION ( 'NONE',  ( 0.000000000000000000, -3.771137991253922657E-16, 1.000000000000000000 ) ) ;
#194 = ORIENTED_EDGE ( 'NONE', *, *, #225, .F. ) ;
#195 = VERTEX_POINT ( 'NONE', #306 ) ;
#196 = CARTESIAN_POINT ( 'NONE',  ( 87.80000000000001137, 12.45000000000000995, -32.58999999999996078 ) ) ;
#197 = CARTESIAN_POINT ( 'NONE',  ( 89.00000000000002842, 13.85000000000000675, -32.58999999999996078 ) ) ;
#198 = CARTESIAN_POINT ( 'NONE',  ( 87.80000000000001137, 12.45000000000000817, -32.58999999999996078 ) ) ;
#199 = STYLED_ITEM ( 'NONE', ( #42 ), #157 ) ;
#200 = PLANE ( 'NONE',  #240 ) ;
#201 = VECTOR ( 'NONE', #294, 1000.000000000000000 ) ;
#202 = ORIENTED_EDGE ( 'NONE', *, *, #327, .F. ) ;
#203 = CARTESIAN_POINT ( 'NONE',  ( 87.40000000000001990, 11.55000000000002736, -32.58999999999996078 ) ) ;
#204 = MANIFOLD_SOLID_BREP ( 'Aufsatz-Linear austragen2', #207 ) ;
#205 = EDGE_CURVE ( 'NONE', #16, #269, #215, .T. ) ;
#206 = ADVANCED_FACE ( 'NONE', ( #44 ), #21, .T. ) ;
#207 = CLOSED_SHELL ( 'NONE', ( #273, #323, #174, #69, #206, #116, #170, #63, #72, #126 ) ) ;
#208 = EDGE_CURVE ( 'NONE', #128, #301, #132, .T. ) ;
#209 = PLANE ( 'NONE',  #308 ) ;
#210 = DIRECTION ( 'NONE',  ( 0.000000000000000000, -3.771137991253922657E-16, 1.000000000000000000 ) ) ;
#211 = ORIENTED_EDGE ( 'NONE', *, *, #316, .T. ) ;
#212 = CARTESIAN_POINT ( 'NONE',  ( 87.40000000000001990, 11.55000000000002736, -32.58999999999996078 ) ) ;
#213 = AXIS2_PLACEMENT_3D ( 'NONE', #239, #156, #78 ) ;
#214 =( NAMED_UNIT ( * ) PLANE_ANGLE_UNIT ( ) SI_UNIT ( $, .RADIAN. ) );
#215 = LINE ( 'NONE', #241, #100 ) ;
#216 = EDGE_CURVE ( 'NONE', #79, #188, #36, .T. ) ;
#217 = FACE_OUTER_BOUND ( 'NONE', #160, .T. ) ;
#218 = SURFACE_SIDE_STYLE ('',( #77 ) ) ;
#219 = ORIENTED_EDGE ( 'NONE', *, *, #216, .F. ) ;
#220 = PLANE ( 'NONE',  #144 ) ;
#221 = PLANE ( 'NONE',  #26 ) ;
#222 = LINE ( 'NONE', #80, #112 ) ;
#223 = ORIENTED_EDGE ( 'NONE', *, *, #118, .F. ) ;
#224 = CARTESIAN_POINT ( 'NONE',  ( 89.00000000000002842, 12.45000000000000817, -37.18999999999996930 ) ) ;
#225 = EDGE_CURVE ( 'NONE', #185, #314, #137, .T. ) ;
#226 = CARTESIAN_POINT ( 'NONE',  ( 87.40000000000001990, 14.65000000000002167, -37.18999999999996930 ) ) ;
#227 = ORIENTED_EDGE ( 'NONE', *, *, #14, .F. ) ;
#228 = DIRECTION ( 'NONE',  ( 0.000000000000000000, 1.000000000000000000, 0.000000000000000000 ) ) ;
#229 = CARTESIAN_POINT ( 'NONE',  ( 87.80000000000001137, 11.55000000000002558, -37.18999999999996930 ) ) ;
#230 = CARTESIAN_POINT ( 'NONE',  ( 89.00000000000002842, 12.45000000000000817, -32.58999999999996078 ) ) ;
#231 = EDGE_CURVE ( 'NONE', #303, #79, #98, .T. ) ;
#232 = VECTOR ( 'NONE', #11, 1000.000000000000000 ) ;
#233 = ORIENTED_EDGE ( 'NONE', *, *, #216, .T. ) ;
#234 = ORIENTED_EDGE ( 'NONE', *, *, #139, .T. ) ;
#235 = DIRECTION ( 'NONE',  ( -0.000000000000000000, 0.000000000000000000, -1.000000000000000000 ) ) ;
#236 = PRODUCT ( 'display_button', 'display_button', '', ( #106 ) ) ;
#237 = VECTOR ( 'NONE', #228, 1000.000000000000000 ) ;
#238 = ORIENTED_EDGE ( 'NONE', *, *, #176, .F. ) ;
#239 = CARTESIAN_POINT ( 'NONE',  ( 87.40000000000001990, 11.55000000000002558, -37.18999999999996930 ) ) ;
#240 = AXIS2_PLACEMENT_3D ( 'NONE', #203, #297, #40 ) ;
#241 = CARTESIAN_POINT ( 'NONE',  ( 89.00000000000002842, 13.85000000000000853, -37.18999999999996930 ) ) ;
#242 = FACE_OUTER_BOUND ( 'NONE', #124, .T. ) ;
#243 = DIRECTION ( 'NONE',  ( -1.000000000000000000, -0.000000000000000000, -0.000000000000000000 ) ) ;
#244 = EDGE_LOOP ( 'NONE', ( #311, #328, #37, #278 ) ) ;
#245 =( NAMED_UNIT ( * ) PLANE_ANGLE_UNIT ( ) SI_UNIT ( $, .RADIAN. ) );
#246 = MECHANICAL_DESIGN_GEOMETRIC_PRESENTATION_REPRESENTATION (  '', ( #83 ), #172 ) ;
#247 = VECTOR ( 'NONE', #152, 1000.000000000000000 ) ;
#248 = EDGE_LOOP ( 'NONE', ( #296, #211, #120, #29 ) ) ;
#249 = DIRECTION ( 'NONE',  ( 0.000000000000000000, -3.771137991253922657E-16, -1.000000000000000000 ) ) ;
#250 = CARTESIAN_POINT ( 'NONE',  ( 89.00000000000002842, 12.45000000000000817, -37.18999999999996930 ) ) ;
#251 = DIRECTION ( 'NONE',  ( 0.000000000000000000, -0.000000000000000000, 1.000000000000000000 ) ) ;
#252 = VECTOR ( 'NONE', #325, 1000.000000000000000 ) ;
#253 = DIRECTION ( 'NONE',  ( 0.000000000000000000, 0.000000000000000000, -1.000000000000000000 ) ) ;
#254 = ORIENTED_EDGE ( 'NONE', *, *, #334, .T. ) ;
#255 = CARTESIAN_POINT ( 'NONE',  ( 89.00000000000002842, 13.85000000000000675, -32.58999999999996078 ) ) ;
#256 = DIRECTION ( 'NONE',  ( -1.000000000000000000, -0.000000000000000000, -0.000000000000000000 ) ) ;
#257 = EDGE_CURVE ( 'NONE', #65, #82, #86, .T. ) ;
#258 = LINE ( 'NONE', #229, #324 ) ;
#259 = ORIENTED_EDGE ( 'NONE', *, *, #183, .T. ) ;
#260 = ORIENTED_EDGE ( 'NONE', *, *, #205, .T. ) ;
#261 = ORIENTED_EDGE ( 'NONE', *, *, #316, .F. ) ;
#262 = PRESENTATION_LAYER_ASSIGNMENT (  '', '', ( #83 ) ) ;
#263 = PLANE ( 'NONE',  #213 ) ;
#264 = CARTESIAN_POINT ( 'NONE',  ( 87.40000000000001990, 14.65000000000002167, -37.18999999999996930 ) ) ;
#265 = FACE_OUTER_BOUND ( 'NONE', #248, .T. ) ;
#266 = SURFACE_STYLE_USAGE ( .BOTH. , #218 ) ;
#267 = ORIENTED_EDGE ( 'NONE', *, *, #231, .F. ) ;
#268 = APPLICATION_PROTOCOL_DEFINITION ( 'draft international standard', 'automotive_design', 1998, #57 ) ;
#269 = VERTEX_POINT ( 'NONE', #129 ) ;
#270 = CARTESIAN_POINT ( 'NONE',  ( 89.00000000000002842, 13.85000000000000853, -37.18999999999996930 ) ) ;
#271 = VECTOR ( 'NONE', #322, 1000.000000000000000 ) ;
#272 = CARTESIAN_POINT ( 'NONE',  ( 89.00000000000002842, 0.000000000000000000, 0.000000000000000000 ) ) ;
#273 = ADVANCED_FACE ( 'NONE', ( #52 ), #209, .T. ) ;
#274 = VECTOR ( 'NONE', #256, 1000.000000000000000 ) ;
#275 = ORIENTED_EDGE ( 'NONE', *, *, #125, .F. ) ;
#276 = DIRECTION ( 'NONE',  ( -0.000000000000000000, 0.000000000000000000, -1.000000000000000000 ) ) ;
#277 = LINE ( 'NONE', #312, #187 ) ;
#278 = ORIENTED_EDGE ( 'NONE', *, *, #257, .T. ) ;
#279 = UNCERTAINTY_MEASURE_WITH_UNIT (LENGTH_MEASURE( 1.000000000000000082E-05 ), #75, 'distance_accuracy_value', 'NONE');
#280 = CARTESIAN_POINT ( 'NONE',  ( 89.00000000000002842, 13.85000000000000853, -37.18999999999996930 ) ) ;
#281 = AXIS2_PLACEMENT_3D ( 'NONE', #298, #145, #43 ) ;
#282 =( NAMED_UNIT ( * ) SI_UNIT ( $, .STERADIAN. ) SOLID_ANGLE_UNIT ( ) );
#283 = FACE_OUTER_BOUND ( 'NONE', #138, .T. ) ;
#284 = FACE_OUTER_BOUND ( 'NONE', #15, .T. ) ;
#285 = ORIENTED_EDGE ( 'NONE', *, *, #110, .T. ) ;
#286 = CARTESIAN_POINT ( 'NONE',  ( 0.000000000000000000, 0.000000000000000000, 0.000000000000000000 ) ) ;
#287 = CARTESIAN_POINT ( 'NONE',  ( 89.00000000000002842, 13.85000000000000675, -32.58999999999996078 ) ) ;
#288 = APPLICATION_PROTOCOL_DEFINITION ( 'draft international standard', 'automotive_design', 1998, #107 ) ;
#289 = CARTESIAN_POINT ( 'NONE',  ( 87.80000000000001137, 12.45000000000000817, -37.18999999999996930 ) ) ;
#290 = AXIS2_PLACEMENT_3D ( 'NONE', #66, #171, #276 ) ;
#291 = LINE ( 'NONE', #280, #302 ) ;
#292 = LINE ( 'NONE', #84, #114 ) ;
#293 = AXIS2_PLACEMENT_3D ( 'NONE', #264, #181, #73 ) ;
#294 = DIRECTION ( 'NONE',  ( 0.000000000000000000, -3.771137991253922657E-16, 1.000000000000000000 ) ) ;
#295 = LINE ( 'NONE', #198, #93 ) ;
#296 = ORIENTED_EDGE ( 'NONE', *, *, #176, .T. ) ;
#297 = DIRECTION ( 'NONE',  ( 0.000000000000000000, -1.000000000000000000, 3.771137991253923150E-16 ) ) ;
#298 = CARTESIAN_POINT ( 'NONE',  ( 87.40000000000001990, 0.000000000000000000, 0.000000000000000000 ) ) ;
#299 = LINE ( 'NONE', #143, #68 ) ;
#300 = EDGE_LOOP ( 'NONE', ( #94, #1, #261, #260 ) ) ;
#301 = VERTEX_POINT ( 'NONE', #101 ) ;
#302 = VECTOR ( 'NONE', #210, 1000.000000000000000 ) ;
#303 = VERTEX_POINT ( 'NONE', #17 ) ;
#304 = PRESENTATION_LAYER_ASSIGNMENT (  '', '', ( #199 ) ) ;
#305 = PRODUCT_DEFINITION_SHAPE ( 'NONE', 'NONE',  #180 ) ;
#306 = CARTESIAN_POINT ( 'NONE',  ( 87.80000000000001137, 13.85000000000000675, -32.58999999999996078 ) ) ;
#307 = LINE ( 'NONE', #140, #271 ) ;
#308 = AXIS2_PLACEMENT_3D ( 'NONE', #20, #49, #235 ) ;
#309 = SHAPE_DEFINITION_REPRESENTATION ( #305, #157 ) ;
#310 = FACE_OUTER_BOUND ( 'NONE', #300, .T. ) ;
#311 = ORIENTED_EDGE ( 'NONE', *, *, #133, .F. ) ;
#312 = CARTESIAN_POINT ( 'NONE',  ( 87.80000000000001137, 14.65000000000001990, -32.58999999999996078 ) ) ;
#313 = VECTOR ( 'NONE', #151, 1000.000000000000000 ) ;
#314 = VERTEX_POINT ( 'NONE', #330 ) ;
#315 = CARTESIAN_POINT ( 'NONE',  ( 87.40000000000001990, 14.65000000000001990, -32.58999999999996078 ) ) ;
#316 = EDGE_CURVE ( 'NONE', #16, #45, #291, .T. ) ;
#317 = DIRECTION ( 'NONE',  ( 1.000000000000000000, 0.000000000000000000, 0.000000000000000000 ) ) ;
#318 = DIRECTION ( 'NONE',  ( 1.000000000000000000, 0.000000000000000000, 0.000000000000000000 ) ) ;
#319 = ORIENTED_EDGE ( 'NONE', *, *, #133, .T. ) ;
#320 = ORIENTED_EDGE ( 'NONE', *, *, #136, .F. ) ;
#321 = AXIS2_PLACEMENT_3D ( 'NONE', #286, #30, #134 ) ;
#322 = DIRECTION ( 'NONE',  ( 0.000000000000000000, -3.771137991253922657E-16, 1.000000000000000000 ) ) ;
#323 = ADVANCED_FACE ( 'NONE', ( #283 ), #263, .T. ) ;
#324 = VECTOR ( 'NONE', #12, 1000.000000000000000 ) ;
#325 = DIRECTION ( 'NONE',  ( 0.000000000000000000, -1.000000000000000000, 0.000000000000000000 ) ) ;
#326 =( GEOMETRIC_REPRESENTATION_CONTEXT ( 3 ) GLOBAL_UNCERTAINTY_ASSIGNED_CONTEXT ( ( #147 ) ) GLOBAL_UNIT_ASSIGNED_CONTEXT ( ( #55, #245, #186 ) ) REPRESENTATION_CONTEXT ( 'NONE', 'WORKASPACE' ) );
#327 = EDGE_CURVE ( 'NONE', #301, #65, #222, .T. ) ;
#328 = ORIENTED_EDGE ( 'NONE', *, *, #208, .T. ) ;
#329 = ORIENTED_EDGE ( 'NONE', *, *, #231, .T. ) ;
#330 = CARTESIAN_POINT ( 'NONE',  ( 87.80000000000001137, 14.65000000000001990, -32.58999999999996078 ) ) ;
#331 = VECTOR ( 'NONE', #92, 1000.000000000000000 ) ;
#332 =( NAMED_UNIT ( * ) PLANE_ANGLE_UNIT ( ) SI_UNIT ( $, .RADIAN. ) );
#333 = DIRECTION ( 'NONE',  ( 0.000000000000000000, -1.000000000000000000, 0.000000000000000000 ) ) ;
#334 = EDGE_CURVE ( 'NONE', #88, #82, #60, .T. ) ;
ENDSEC;
END-ISO-10303-21;
