ISO-10303-21;
HEADER;
FILE_DESCRIPTION (( 'STEP AP214' ),
    '1' );
FILE_NAME ('power_button.STEP',
    '2026-09-19T22:00:33',
    ( '' ),
    ( '' ),
    'SwSTEP 2.0',
    'SolidWorks 2018',
    '' );
FILE_SCHEMA (( 'AUTOMOTIVE_DESIGN' ));
ENDSEC;

DATA;
#1 = CYLINDRICAL_SURFACE ( 'NONE', #165, 1.199999999999999734 ) ;
#2 = VERTEX_POINT ( 'NONE', #70 ) ;
#3 = ADVANCED_FACE ( 'NONE', ( #71, #223 ), #202, .F. ) ;
#4 = CARTESIAN_POINT ( 'NONE',  ( -0.8000000000000000444, -1.745900930049276933, 16.59936534720461054 ) ) ;
#5 = VECTOR ( 'NONE', #96, 1000.000000000000000 ) ;
#6 = CARTESIAN_POINT ( 'NONE',  ( -0.4000000000000000222, -4.345900930049278799, 20.19936534720461552 ) ) ;
#7 = AXIS2_PLACEMENT_3D ( 'NONE', #40, #248, #172 ) ;
#8 = LINE ( 'NONE', #155, #234 ) ;
#9 = DIRECTION ( 'NONE',  ( 0.000000000000000000, -1.204669080539447372E-16, 1.000000000000000000 ) ) ;
#10 = DIRECTION ( 'NONE',  ( 0.000000000000000000, -1.000000000000000000, -2.409338161078895729E-16 ) ) ;
#11 = CARTESIAN_POINT ( 'NONE',  ( -1.800000000000000044, -3.045900930049277200, 18.39936534720461481 ) ) ;
#12 = MECHANICAL_DESIGN_GEOMETRIC_PRESENTATION_REPRESENTATION (  '', ( #267 ), #34 ) ;
#13 = DIRECTION ( 'NONE',  ( 0.000000000000000000, 0.000000000000000000, -1.000000000000000000 ) ) ;
#14 = UNCERTAINTY_MEASURE_WITH_UNIT (LENGTH_MEASURE( 1.000000000000000082E-05 ), #17, 'distance_accuracy_value', 'NONE');
#15 = PLANE ( 'NONE',  #66 ) ;
#16 = FACE_OUTER_BOUND ( 'NONE', #236, .T. ) ;
#17 =( LENGTH_UNIT ( ) NAMED_UNIT ( * ) SI_UNIT ( .MILLI., .METRE. ) );
#18 = LINE ( 'NONE', #6, #63 ) ;
#19 = DIRECTION ( 'NONE',  ( -0.000000000000000000, 0.000000000000000000, -1.000000000000000000 ) ) ;
#20 = ORIENTED_EDGE ( 'NONE', *, *, #214, .F. ) ;
#21 = AXIS2_PLACEMENT_3D ( 'NONE', #141, #36, #13 ) ;
#22 = DIRECTION ( 'NONE',  ( 0.000000000000000000, 1.000000000000000000, 0.000000000000000000 ) ) ;
#23 = SURFACE_STYLE_USAGE ( .BOTH. , #235 ) ;
#24 = ORIENTED_EDGE ( 'NONE', *, *, #103, .F. ) ;
#25 = VERTEX_POINT ( 'NONE', #221 ) ;
#26 = PRESENTATION_STYLE_ASSIGNMENT (( #23 ) ) ;
#27 = VECTOR ( 'NONE', #105, 1000.000000000000000 ) ;
#28 = ORIENTED_EDGE ( 'NONE', *, *, #117, .T. ) ;
#29 =( GEOMETRIC_REPRESENTATION_CONTEXT ( 3 ) GLOBAL_UNCERTAINTY_ASSIGNED_CONTEXT ( ( #134 ) ) GLOBAL_UNIT_ASSIGNED_CONTEXT ( ( #279, #237, #170 ) ) REPRESENTATION_CONTEXT ( 'NONE', 'WORKASPACE' ) );
#30 = ORIENTED_EDGE ( 'NONE', *, *, #84, .T. ) ;
#31 = CARTESIAN_POINT ( 'NONE',  ( -1.800000000000000044, -3.045900930049277200, 18.39936534720461481 ) ) ;
#32 = EDGE_CURVE ( 'NONE', #212, #178, #104, .T. ) ;
#33 = DIRECTION ( 'NONE',  ( 1.000000000000000000, 0.000000000000000000, -0.000000000000000000 ) ) ;
#34 =( GEOMETRIC_REPRESENTATION_CONTEXT ( 3 ) GLOBAL_UNCERTAINTY_ASSIGNED_CONTEXT ( ( #215 ) ) GLOBAL_UNIT_ASSIGNED_CONTEXT ( ( #191, #100, #124 ) ) REPRESENTATION_CONTEXT ( 'NONE', 'WORKASPACE' ) );
#35 = DIRECTION ( 'NONE',  ( -0.000000000000000000, -1.000000000000000000, -0.000000000000000000 ) ) ;
#36 = DIRECTION ( 'NONE',  ( 1.000000000000000000, 0.000000000000000000, 0.000000000000000000 ) ) ;
#37 = STYLED_ITEM ( 'NONE', ( #26 ), #228 ) ;
#38 = CARTESIAN_POINT ( 'NONE',  ( -0.8000000000000000444, -4.345900930049277910, 16.59936534720461054 ) ) ;
#39 = CARTESIAN_POINT ( 'NONE',  ( -0.4000000000000000222, -4.345900930049277910, 16.59936534720461054 ) ) ;
#40 = CARTESIAN_POINT ( 'NONE',  ( -1.800000000000000044, -3.045900930049277200, 18.39936534720461481 ) ) ;
#41 = ORIENTED_EDGE ( 'NONE', *, *, #87, .T. ) ;
#42 = PRESENTATION_LAYER_ASSIGNMENT (  '', '', ( #37 ) ) ;
#43 = CARTESIAN_POINT ( 'NONE',  ( -0.8000000000000000444, -4.345900930049277910, 16.59936534720461054 ) ) ;
#44 = DIRECTION ( 'NONE',  ( 1.000000000000000000, 0.000000000000000000, -0.000000000000000000 ) ) ;
#45 = APPLICATION_PROTOCOL_DEFINITION ( 'draft international standard', 'automotive_design', 1998, #57 ) ;
#46 = LINE ( 'NONE', #4, #271 ) ;
#47 = CLOSED_SHELL ( 'NONE', ( #129, #218, #164, #50, #136, #3, #226, #197, #183 ) ) ;
#48 = ORIENTED_EDGE ( 'NONE', *, *, #200, .F. ) ;
#49 = EDGE_LOOP ( 'NONE', ( #60, #67, #30, #41 ) ) ;
#50 = ADVANCED_FACE ( 'NONE', ( #144 ), #109, .T. ) ;
#51 = DIRECTION ( 'NONE',  ( 0.000000000000000000, -1.204669080539447372E-16, 1.000000000000000000 ) ) ;
#52 = ORIENTED_EDGE ( 'NONE', *, *, #84, .F. ) ;
#53 = CARTESIAN_POINT ( 'NONE',  ( -1.800000000000000044, -3.045900930049277200, 19.59936534720461410 ) ) ;
#54 = CARTESIAN_POINT ( 'NONE',  ( -0.4000000000000000222, -1.745900930049277378, 20.19936534720461552 ) ) ;
#55 = VECTOR ( 'NONE', #182, 1000.000000000000000 ) ;
#56 = PRODUCT_CONTEXT ( 'NONE', #168, 'mechanical' ) ;
#57 = APPLICATION_CONTEXT ( 'automotive_design' ) ;
#58 = DIRECTION ( 'NONE',  ( 0.000000000000000000, 0.000000000000000000, -1.000000000000000000 ) ) ;
#59 = EDGE_LOOP ( 'NONE', ( #264, #211, #123, #113 ) ) ;
#60 = ORIENTED_EDGE ( 'NONE', *, *, #149, .T. ) ;
#61 = EDGE_CURVE ( 'NONE', #25, #2, #171, .T. ) ;
#62 = DIRECTION ( 'NONE',  ( 1.000000000000000000, 0.000000000000000000, 0.000000000000000000 ) ) ;
#63 = VECTOR ( 'NONE', #35, 1000.000000000000000 ) ;
#64 = LINE ( 'NONE', #186, #5 ) ;
#65 = VECTOR ( 'NONE', #184, 1000.000000000000000 ) ;
#66 = AXIS2_PLACEMENT_3D ( 'NONE', #232, #44, #19 ) ;
#67 = ORIENTED_EDGE ( 'NONE', *, *, #132, .T. ) ;
#68 = CARTESIAN_POINT ( 'NONE',  ( -0.8000000000000000444, -4.345900930049278799, 20.19936534720461552 ) ) ;
#69 = ORIENTED_EDGE ( 'NONE', *, *, #169, .T. ) ;
#70 = CARTESIAN_POINT ( 'NONE',  ( -0.8000000000000000444, -4.345900930049278799, 20.19936534720461552 ) ) ;
#71 = FACE_BOUND ( 'NONE', #240, .T. ) ;
#72 = DIRECTION ( 'NONE',  ( 1.000000000000000000, 0.000000000000000000, 0.000000000000000000 ) ) ;
#73 = FACE_OUTER_BOUND ( 'NONE', #265, .T. ) ;
#74 = VECTOR ( 'NONE', #162, 1000.000000000000000 ) ;
#75 = DIRECTION ( 'NONE',  ( 1.000000000000000000, 0.000000000000000000, 0.000000000000000000 ) ) ;
#76 = AXIS2_PLACEMENT_3D ( 'NONE', #269, #114, #203 ) ;
#77 = DIRECTION ( 'NONE',  ( 1.000000000000000000, 0.000000000000000000, 0.000000000000000000 ) ) ;
#78 = EDGE_LOOP ( 'NONE', ( #52, #48, #195, #272 ) ) ;
#79 = MECHANICAL_DESIGN_GEOMETRIC_PRESENTATION_REPRESENTATION (  '', ( #37 ), #239 ) ;
#80 = ORIENTED_EDGE ( 'NONE', *, *, #214, .T. ) ;
#81 = PRESENTATION_STYLE_ASSIGNMENT (( #146 ) ) ;
#82 = FILL_AREA_STYLE ('',( #273 ) ) ;
#83 = ORIENTED_EDGE ( 'NONE', *, *, #158, .F. ) ;
#84 = EDGE_CURVE ( 'NONE', #224, #130, #18, .T. ) ;
#85 = CYLINDRICAL_SURFACE ( 'NONE', #138, 1.199999999999999734 ) ;
#86 = COLOUR_RGB ( '',0.7921568627450980005, 0.8196078431372548767, 0.9333333333333333481 ) ;
#87 = EDGE_CURVE ( 'NONE', #130, #243, #220, .T. ) ;
#88 = CIRCLE ( 'NONE', #115, 1.199999999999999734 ) ;
#89 = ORIENTED_EDGE ( 'NONE', *, *, #259, .F. ) ;
#90 = VERTEX_POINT ( 'NONE', #263 ) ;
#91 = LINE ( 'NONE', #53, #233 ) ;
#92 = DIRECTION ( 'NONE',  ( 0.000000000000000000, 2.409338161078895729E-16, -1.000000000000000000 ) ) ;
#93 = PLANE ( 'NONE',  #148 ) ;
#94 = VECTOR ( 'NONE', #268, 1000.000000000000000 ) ;
#95 = CARTESIAN_POINT ( 'NONE',  ( -0.8000000000000000444, -4.345900930049277910, 16.59936534720461054 ) ) ;
#96 = DIRECTION ( 'NONE',  ( 1.000000000000000000, 0.000000000000000000, 0.000000000000000000 ) ) ;
#97 = LINE ( 'NONE', #39, #74 ) ;
#98 =( NAMED_UNIT ( * ) SI_UNIT ( $, .STERADIAN. ) SOLID_ANGLE_UNIT ( ) );
#99 = CARTESIAN_POINT ( 'NONE',  ( -1.800000000000000044, -3.045900930049277200, 18.39936534720461481 ) ) ;
#100 =( NAMED_UNIT ( * ) PLANE_ANGLE_UNIT ( ) SI_UNIT ( $, .RADIAN. ) );
#101 = EDGE_LOOP ( 'NONE', ( #156, #255, #69, #28 ) ) ;
#102 = LINE ( 'NONE', #166, #180 ) ;
#103 = EDGE_CURVE ( 'NONE', #212, #25, #46, .T. ) ;
#104 = LINE ( 'NONE', #110, #137 ) ;
#105 = DIRECTION ( 'NONE',  ( -0.000000000000000000, 2.409338161078894743E-16, -1.000000000000000000 ) ) ;
#106 = CARTESIAN_POINT ( 'NONE',  ( -0.8000000000000000444, -4.345900930049278799, 20.19936534720461552 ) ) ;
#107 = EDGE_CURVE ( 'NONE', #2, #130, #150, .T. ) ;
#108 = LINE ( 'NONE', #43, #139 ) ;
#109 = PLANE ( 'NONE',  #152 ) ;
#110 = CARTESIAN_POINT ( 'NONE',  ( -0.8000000000000000444, -1.745900930049276933, 16.59936534720461054 ) ) ;
#111 = DIRECTION ( 'NONE',  ( 1.000000000000000000, 0.000000000000000000, 0.000000000000000000 ) ) ;
#112 = ORIENTED_EDGE ( 'NONE', *, *, #219, .F. ) ;
#113 = ORIENTED_EDGE ( 'NONE', *, *, #32, .T. ) ;
#114 = DIRECTION ( 'NONE',  ( 1.000000000000000000, 0.000000000000000000, 0.000000000000000000 ) ) ;
#115 = AXIS2_PLACEMENT_3D ( 'NONE', #119, #75, #187 ) ;
#116 = PRODUCT_DEFINITION_CONTEXT ( 'detailed design', #57, 'design' ) ;
#117 = EDGE_CURVE ( 'NONE', #127, #243, #153, .T. ) ;
#118 = VECTOR ( 'NONE', #266, 1000.000000000000000 ) ;
#119 = CARTESIAN_POINT ( 'NONE',  ( -0.8000000000000000444, -3.045900930049277200, 18.39936534720461481 ) ) ;
#120 = LINE ( 'NONE', #95, #65 ) ;
#121 = AXIS2_PLACEMENT_3D ( 'NONE', #246, #131, #199 ) ;
#122 = ORIENTED_EDGE ( 'NONE', *, *, #200, .T. ) ;
#123 = ORIENTED_EDGE ( 'NONE', *, *, #270, .T. ) ;
#124 =( NAMED_UNIT ( * ) SI_UNIT ( $, .STERADIAN. ) SOLID_ANGLE_UNIT ( ) );
#125 = FACE_OUTER_BOUND ( 'NONE', #154, .T. ) ;
#126 = VERTEX_POINT ( 'NONE', #261 ) ;
#127 = VERTEX_POINT ( 'NONE', #133 ) ;
#128 = COLOUR_RGB ( '',0.7921568627450980005, 0.8196078431372548767, 0.9333333333333333481 ) ;
#129 = ADVANCED_FACE ( 'NONE', ( #179 ), #85, .T. ) ;
#130 = VERTEX_POINT ( 'NONE', #229 ) ;
#131 = DIRECTION ( 'NONE',  ( 1.000000000000000000, 0.000000000000000000, -0.000000000000000000 ) ) ;
#132 = EDGE_CURVE ( 'NONE', #178, #224, #8, .T. ) ;
#133 = CARTESIAN_POINT ( 'NONE',  ( -0.8000000000000000444, -4.345900930049277910, 16.59936534720461054 ) ) ;
#134 = UNCERTAINTY_MEASURE_WITH_UNIT (LENGTH_MEASURE( 1.000000000000000082E-05 ), #279, 'distance_accuracy_value', 'NONE');
#135 = CARTESIAN_POINT ( 'NONE',  ( -0.8000000000000000444, -4.345900930049277910, 16.59936534720461054 ) ) ;
#136 = ADVANCED_FACE ( 'NONE', ( #125 ), #222, .T. ) ;
#137 = VECTOR ( 'NONE', #244, 1000.000000000000000 ) ;
#138 = AXIS2_PLACEMENT_3D ( 'NONE', #31, #72, #157 ) ;
#139 = VECTOR ( 'NONE', #22, 1000.000000000000000 ) ;
#140 = DIRECTION ( 'NONE',  ( 0.000000000000000000, 0.000000000000000000, -1.000000000000000000 ) ) ;
#141 = CARTESIAN_POINT ( 'NONE',  ( -1.800000000000000044, -3.045900930049277200, 18.39936534720461481 ) ) ;
#142 = CARTESIAN_POINT ( 'NONE',  ( -0.8000000000000000444, -4.345900930049277910, 16.59936534720461054 ) ) ;
#143 = AXIS2_PLACEMENT_3D ( 'NONE', #188, #280, #62 ) ;
#144 = FACE_OUTER_BOUND ( 'NONE', #78, .T. ) ;
#145 = CIRCLE ( 'NONE', #163, 1.199999999999999734 ) ;
#146 = SURFACE_STYLE_USAGE ( .BOTH. , #257 ) ;
#147 = CARTESIAN_POINT ( 'NONE',  ( -1.800000000000000044, -3.045900930049277200, 17.19936534720461196 ) ) ;
#148 = AXIS2_PLACEMENT_3D ( 'NONE', #142, #140, #208 ) ;
#149 = EDGE_CURVE ( 'NONE', #243, #178, #97, .T. ) ;
#150 = LINE ( 'NONE', #106, #94 ) ;
#151 = CIRCLE ( 'NONE', #7, 1.199999999999999734 ) ;
#152 = AXIS2_PLACEMENT_3D ( 'NONE', #242, #198, #33 ) ;
#153 = LINE ( 'NONE', #135, #55 ) ;
#154 = EDGE_LOOP ( 'NONE', ( #161, #201, #176, #122 ) ) ;
#155 = CARTESIAN_POINT ( 'NONE',  ( -0.4000000000000000222, -1.745900930049276933, 16.59936534720461054 ) ) ;
#156 = ORIENTED_EDGE ( 'NONE', *, *, #87, .F. ) ;
#157 = DIRECTION ( 'NONE',  ( 0.000000000000000000, 0.000000000000000000, -1.000000000000000000 ) ) ;
#158 = EDGE_CURVE ( 'NONE', #126, #90, #88, .T. ) ;
#159 = PRODUCT_RELATED_PRODUCT_CATEGORY ( 'part', '', ( #282 ) ) ;
#160 = CARTESIAN_POINT ( 'NONE',  ( -0.8000000000000000444, -1.745900930049276933, 16.59936534720461054 ) ) ;
#161 = ORIENTED_EDGE ( 'NONE', *, *, #132, .F. ) ;
#162 = DIRECTION ( 'NONE',  ( 0.000000000000000000, 1.000000000000000000, 0.000000000000000000 ) ) ;
#163 = AXIS2_PLACEMENT_3D ( 'NONE', #99, #192, #58 ) ;
#164 = ADVANCED_FACE ( 'NONE', ( #194 ), #204, .T. ) ;
#165 = AXIS2_PLACEMENT_3D ( 'NONE', #11, #77, #276 ) ;
#166 = CARTESIAN_POINT ( 'NONE',  ( -1.800000000000000044, -3.045900930049277200, 17.19936534720461196 ) ) ;
#167 = ORIENTED_EDGE ( 'NONE', *, *, #270, .F. ) ;
#168 = APPLICATION_CONTEXT ( 'automotive_design' ) ;
#169 = EDGE_CURVE ( 'NONE', #2, #127, #120, .T. ) ;
#170 =( NAMED_UNIT ( * ) SI_UNIT ( $, .STERADIAN. ) SOLID_ANGLE_UNIT ( ) );
#171 = LINE ( 'NONE', #68, #118 ) ;
#172 = DIRECTION ( 'NONE',  ( 0.000000000000000000, 0.000000000000000000, -1.000000000000000000 ) ) ;
#173 = VERTEX_POINT ( 'NONE', #249 ) ;
#174 = SHAPE_DEFINITION_REPRESENTATION ( #185, #250 ) ;
#175 = APPLICATION_PROTOCOL_DEFINITION ( 'draft international standard', 'automotive_design', 1998, #168 ) ;
#176 = ORIENTED_EDGE ( 'NONE', *, *, #103, .T. ) ;
#177 = ORIENTED_EDGE ( 'NONE', *, *, #196, .F. ) ;
#178 = VERTEX_POINT ( 'NONE', #230 ) ;
#179 = FACE_OUTER_BOUND ( 'NONE', #209, .T. ) ;
#180 = VECTOR ( 'NONE', #111, 1000.000000000000000 ) ;
#181 = CARTESIAN_POINT ( 'NONE',  ( -0.4000000000000000222, -4.345900930049277910, 16.59936534720461054 ) ) ;
#182 = DIRECTION ( 'NONE',  ( 1.000000000000000000, 0.000000000000000000, 0.000000000000000000 ) ) ;
#183 = ADVANCED_FACE ( 'NONE', ( #73 ), #207, .F. ) ;
#184 = DIRECTION ( 'NONE',  ( -0.000000000000000000, 2.409338161078894743E-16, -1.000000000000000000 ) ) ;
#185 = PRODUCT_DEFINITION_SHAPE ( 'NONE', 'NONE',  #281 ) ;
#186 = CARTESIAN_POINT ( 'NONE',  ( -0.8000000000000000444, -1.745900930049277378, 20.19936534720461552 ) ) ;
#187 = DIRECTION ( 'NONE',  ( 0.000000000000000000, 0.000000000000000000, -1.000000000000000000 ) ) ;
#188 = CARTESIAN_POINT ( 'NONE',  ( 0.000000000000000000, 0.000000000000000000, 0.000000000000000000 ) ) ;
#189 = FILL_AREA_STYLE_COLOUR ( '', #128 ) ;
#190 = ORIENTED_EDGE ( 'NONE', *, *, #219, .T. ) ;
#191 =( LENGTH_UNIT ( ) NAMED_UNIT ( * ) SI_UNIT ( .MILLI., .METRE. ) );
#192 = DIRECTION ( 'NONE',  ( 1.000000000000000000, 0.000000000000000000, 0.000000000000000000 ) ) ;
#193 = PRODUCT_DEFINITION_FORMATION_WITH_SPECIFIED_SOURCE ( 'ANY', '', #282, .NOT_KNOWN. ) ;
#194 = FACE_OUTER_BOUND ( 'NONE', #101, .T. ) ;
#195 = ORIENTED_EDGE ( 'NONE', *, *, #61, .T. ) ;
#196 = EDGE_CURVE ( 'NONE', #90, #126, #245, .T. ) ;
#197 = ADVANCED_FACE ( 'NONE', ( #16 ), #1, .T. ) ;
#198 = DIRECTION ( 'NONE',  ( 0.000000000000000000, 0.000000000000000000, 1.000000000000000000 ) ) ;
#199 = DIRECTION ( 'NONE',  ( -0.000000000000000000, 0.000000000000000000, -1.000000000000000000 ) ) ;
#200 = EDGE_CURVE ( 'NONE', #25, #224, #64, .T. ) ;
#201 = ORIENTED_EDGE ( 'NONE', *, *, #32, .F. ) ;
#202 = PLANE ( 'NONE',  #121 ) ;
#203 = DIRECTION ( 'NONE',  ( 0.000000000000000000, 0.000000000000000000, -1.000000000000000000 ) ) ;
#204 = PLANE ( 'NONE',  #262 ) ;
#205 = DIRECTION ( 'NONE',  ( 1.000000000000000000, 0.000000000000000000, 0.000000000000000000 ) ) ;
#206 = EDGE_LOOP ( 'NONE', ( #167, #238, #258, #24 ) ) ;
#207 = PLANE ( 'NONE',  #21 ) ;
#208 = DIRECTION ( 'NONE',  ( -1.000000000000000000, 0.000000000000000000, -0.000000000000000000 ) ) ;
#209 = EDGE_LOOP ( 'NONE', ( #190, #231, #177, #20 ) ) ;
#210 =( NAMED_UNIT ( * ) PLANE_ANGLE_UNIT ( ) SI_UNIT ( $, .RADIAN. ) );
#211 = ORIENTED_EDGE ( 'NONE', *, *, #117, .F. ) ;
#212 = VERTEX_POINT ( 'NONE', #253 ) ;
#213 = EDGE_CURVE ( 'NONE', #173, #126, #91, .T. ) ;
#214 = EDGE_CURVE ( 'NONE', #260, #90, #102, .T. ) ;
#215 = UNCERTAINTY_MEASURE_WITH_UNIT (LENGTH_MEASURE( 1.000000000000000082E-05 ), #191, 'distance_accuracy_value', 'NONE');
#216 = ORIENTED_EDGE ( 'NONE', *, *, #196, .T. ) ;
#217 = FACE_OUTER_BOUND ( 'NONE', #49, .T. ) ;
#218 = ADVANCED_FACE ( 'NONE', ( #227 ), #93, .T. ) ;
#219 = EDGE_CURVE ( 'NONE', #260, #173, #151, .T. ) ;
#220 = LINE ( 'NONE', #181, #27 ) ;
#221 = CARTESIAN_POINT ( 'NONE',  ( -0.8000000000000000444, -1.745900930049277378, 20.19936534720461552 ) ) ;
#222 = PLANE ( 'NONE',  #252 ) ;
#223 = FACE_OUTER_BOUND ( 'NONE', #206, .T. ) ;
#224 = VERTEX_POINT ( 'NONE', #54 ) ;
#225 = DIRECTION ( 'NONE',  ( 0.000000000000000000, -1.204669080539447865E-16, 1.000000000000000000 ) ) ;
#226 = ADVANCED_FACE ( 'NONE', ( #217 ), #15, .T. ) ;
#227 = FACE_OUTER_BOUND ( 'NONE', #59, .T. ) ;
#228 = MANIFOLD_SOLID_BREP ( 'Aufsatz-Linear austragen2', #47 ) ;
#229 = CARTESIAN_POINT ( 'NONE',  ( -0.4000000000000000222, -4.345900930049278799, 20.19936534720461552 ) ) ;
#230 = CARTESIAN_POINT ( 'NONE',  ( -0.4000000000000000222, -1.745900930049276933, 16.59936534720461054 ) ) ;
#231 = ORIENTED_EDGE ( 'NONE', *, *, #213, .T. ) ;
#232 = CARTESIAN_POINT ( 'NONE',  ( -0.4000000000000000222, 0.000000000000000000, 0.000000000000000000 ) ) ;
#233 = VECTOR ( 'NONE', #205, 1000.000000000000000 ) ;
#234 = VECTOR ( 'NONE', #51, 1000.000000000000000 ) ;
#235 = SURFACE_SIDE_STYLE ('',( #274 ) ) ;
#236 = EDGE_LOOP ( 'NONE', ( #278, #247, #80, #83 ) ) ;
#237 =( NAMED_UNIT ( * ) PLANE_ANGLE_UNIT ( ) SI_UNIT ( $, .RADIAN. ) );
#238 = ORIENTED_EDGE ( 'NONE', *, *, #169, .F. ) ;
#239 =( GEOMETRIC_REPRESENTATION_CONTEXT ( 3 ) GLOBAL_UNCERTAINTY_ASSIGNED_CONTEXT ( ( #14 ) ) GLOBAL_UNIT_ASSIGNED_CONTEXT ( ( #17, #210, #98 ) ) REPRESENTATION_CONTEXT ( 'NONE', 'WORKASPACE' ) );
#240 = EDGE_LOOP ( 'NONE', ( #216, #251 ) ) ;
#241 = SURFACE_STYLE_FILL_AREA ( #254 ) ;
#242 = CARTESIAN_POINT ( 'NONE',  ( -0.8000000000000000444, -4.345900930049278799, 20.19936534720461552 ) ) ;
#243 = VERTEX_POINT ( 'NONE', #256 ) ;
#244 = DIRECTION ( 'NONE',  ( 1.000000000000000000, 0.000000000000000000, 0.000000000000000000 ) ) ;
#245 = CIRCLE ( 'NONE', #76, 1.199999999999999734 ) ;
#246 = CARTESIAN_POINT ( 'NONE',  ( -0.8000000000000000444, 0.000000000000000000, 0.000000000000000000 ) ) ;
#247 = ORIENTED_EDGE ( 'NONE', *, *, #259, .T. ) ;
#248 = DIRECTION ( 'NONE',  ( 1.000000000000000000, 0.000000000000000000, 0.000000000000000000 ) ) ;
#249 = CARTESIAN_POINT ( 'NONE',  ( -1.800000000000000044, -3.045900930049277200, 19.59936534720461410 ) ) ;
#250 = ADVANCED_BREP_SHAPE_REPRESENTATION ( 'power_button', ( #228, #143 ), #29 ) ;
#251 = ORIENTED_EDGE ( 'NONE', *, *, #158, .T. ) ;
#252 = AXIS2_PLACEMENT_3D ( 'NONE', #160, #275, #225 ) ;
#253 = CARTESIAN_POINT ( 'NONE',  ( -0.8000000000000000444, -1.745900930049276933, 16.59936534720461054 ) ) ;
#254 = FILL_AREA_STYLE ('',( #189 ) ) ;
#255 = ORIENTED_EDGE ( 'NONE', *, *, #107, .F. ) ;
#256 = CARTESIAN_POINT ( 'NONE',  ( -0.4000000000000000222, -4.345900930049277910, 16.59936534720461054 ) ) ;
#257 = SURFACE_SIDE_STYLE ('',( #241 ) ) ;
#258 = ORIENTED_EDGE ( 'NONE', *, *, #61, .F. ) ;
#259 = EDGE_CURVE ( 'NONE', #173, #260, #145, .T. ) ;
#260 = VERTEX_POINT ( 'NONE', #147 ) ;
#261 = CARTESIAN_POINT ( 'NONE',  ( -0.8000000000000000444, -3.045900930049277200, 19.59936534720461410 ) ) ;
#262 = AXIS2_PLACEMENT_3D ( 'NONE', #38, #10, #92 ) ;
#263 = CARTESIAN_POINT ( 'NONE',  ( -0.8000000000000000444, -3.045900930049277200, 17.19936534720461196 ) ) ;
#264 = ORIENTED_EDGE ( 'NONE', *, *, #149, .F. ) ;
#265 = EDGE_LOOP ( 'NONE', ( #112, #89 ) ) ;
#266 = DIRECTION ( 'NONE',  ( -0.000000000000000000, -1.000000000000000000, -0.000000000000000000 ) ) ;
#267 = STYLED_ITEM ( 'NONE', ( #81 ), #250 ) ;
#268 = DIRECTION ( 'NONE',  ( 1.000000000000000000, 0.000000000000000000, 0.000000000000000000 ) ) ;
#269 = CARTESIAN_POINT ( 'NONE',  ( -0.8000000000000000444, -3.045900930049277200, 18.39936534720461481 ) ) ;
#270 = EDGE_CURVE ( 'NONE', #127, #212, #108, .T. ) ;
#271 = VECTOR ( 'NONE', #9, 1000.000000000000000 ) ;
#272 = ORIENTED_EDGE ( 'NONE', *, *, #107, .T. ) ;
#273 = FILL_AREA_STYLE_COLOUR ( '', #86 ) ;
#274 = SURFACE_STYLE_FILL_AREA ( #82 ) ;
#275 = DIRECTION ( 'NONE',  ( -0.000000000000000000, 1.000000000000000000, 1.204669080539447865E-16 ) ) ;
#276 = DIRECTION ( 'NONE',  ( 0.000000000000000000, 0.000000000000000000, -1.000000000000000000 ) ) ;
#277 = PRESENTATION_LAYER_ASSIGNMENT (  '', '', ( #267 ) ) ;
#278 = ORIENTED_EDGE ( 'NONE', *, *, #213, .F. ) ;
#279 =( LENGTH_UNIT ( ) NAMED_UNIT ( * ) SI_UNIT ( .MILLI., .METRE. ) );
#280 = DIRECTION ( 'NONE',  ( 0.000000000000000000, 0.000000000000000000, 1.000000000000000000 ) ) ;
#281 = PRODUCT_DEFINITION ( 'UNKNOWN', '', #193, #116 ) ;
#282 = PRODUCT ( 'power_button', 'power_button', '', ( #56 ) ) ;
ENDSEC;
END-ISO-10303-21;
