ISO-10303-21;
HEADER;
FILE_DESCRIPTION (( 'STEP AP214' ),
    '1' );
FILE_NAME ('standoff_OPEN.STEP',
    '2026-09-20T12:04:51',
    ( '' ),
    ( '' ),
    'SwSTEP 2.0',
    'SolidWorks 2018',
    '' );
FILE_SCHEMA (( 'AUTOMOTIVE_DESIGN' ));
ENDSEC;

DATA;
#1 = SHAPE_DEFINITION_REPRESENTATION ( #123, #128 ) ;
#2 = VECTOR ( 'NONE', #116, 1000.000000000000000 ) ;
#3 = ORIENTED_EDGE ( 'NONE', *, *, #36, .T. ) ;
#4 = EDGE_CURVE ( 'NONE', #263, #328, #7, .T. ) ;
#5 = CARTESIAN_POINT ( 'NONE',  ( 3.500000000000003109, 0.000000000000000000, 2.250000000000023537 ) ) ;
#6 = FACE_BOUND ( 'NONE', #204, .T. ) ;
#7 = LINE ( 'NONE', #181, #248 ) ;
#8 = DIRECTION ( 'NONE',  ( 0.000000000000000000, 0.000000000000000000, 1.000000000000000000 ) ) ;
#9 = CARTESIAN_POINT ( 'NONE',  ( 5.050000000000003375, -17.30000000000000071, 5.050000000000023803 ) ) ;
#10 = AXIS2_PLACEMENT_3D ( 'NONE', #15, #241, #8 ) ;
#11 = LINE ( 'NONE', #96, #234 ) ;
#12 = CIRCLE ( 'NONE', #141, 1.250000000000000222 ) ;
#13 = FACE_OUTER_BOUND ( 'NONE', #285, .T. ) ;
#14 = VERTEX_POINT ( 'NONE', #115 ) ;
#15 = CARTESIAN_POINT ( 'NONE',  ( 3.500000000000003109, 0.000000000000000000, 3.500000000000023981 ) ) ;
#16 = DIRECTION ( 'NONE',  ( 0.000000000000000000, 1.000000000000000000, 0.000000000000000000 ) ) ;
#17 = ORIENTED_EDGE ( 'NONE', *, *, #250, .T. ) ;
#18 = DIRECTION ( 'NONE',  ( 0.000000000000000000, -1.000000000000000000, 0.000000000000000000 ) ) ;
#19 = LINE ( 'NONE', #210, #304 ) ;
#20 = CONICAL_SURFACE ( 'NONE', #113, 0.8500000000000017542, 0.7853981633974456145 ) ;
#21 = ADVANCED_FACE ( 'NONE', ( #272 ), #59, .F. ) ;
#22 = DIRECTION ( 'NONE',  ( 2.098455817713880305E-16, 0.000000000000000000, 1.000000000000000000 ) ) ;
#23 = EDGE_CURVE ( 'NONE', #203, #260, #235, .T. ) ;
#24 = ADVANCED_FACE ( 'NONE', ( #312 ), #294, .F. ) ;
#25 = VERTEX_POINT ( 'NONE', #269 ) ;
#26 = DIRECTION ( 'NONE',  ( 0.000000000000000000, 0.000000000000000000, -1.000000000000000000 ) ) ;
#27 = VERTEX_POINT ( 'NONE', #137 ) ;
#28 = LINE ( 'NONE', #5, #208 ) ;
#29 = AXIS2_PLACEMENT_3D ( 'NONE', #323, #189, #211 ) ;
#30 = DIRECTION ( 'NONE',  ( 0.000000000000000000, 0.000000000000000000, 1.000000000000000000 ) ) ;
#31 = ORIENTED_EDGE ( 'NONE', *, *, #134, .T. ) ;
#32 = AXIS2_PLACEMENT_3D ( 'NONE', #238, #265, #108 ) ;
#33 = VECTOR ( 'NONE', #52, 1000.000000000000000 ) ;
#34 = ORIENTED_EDGE ( 'NONE', *, *, #178, .T. ) ;
#35 = CARTESIAN_POINT ( 'NONE',  ( 3.500000000000003109, 0.000000000000000000, 4.350000000000025402 ) ) ;
#36 = EDGE_CURVE ( 'NONE', #263, #135, #261, .T. ) ;
#37 = LINE ( 'NONE', #73, #33 ) ;
#38 = ORIENTED_EDGE ( 'NONE', *, *, #95, .T. ) ;
#39 = ADVANCED_FACE ( 'NONE', ( #177 ), #160, .F. ) ;
#40 = FILL_AREA_STYLE ('',( #166 ) ) ;
#41 = SURFACE_STYLE_USAGE ( .BOTH. , #212 ) ;
#42 = ORIENTED_EDGE ( 'NONE', *, *, #82, .T. ) ;
#43 = DIRECTION ( 'NONE',  ( -2.098455817713880305E-16, 0.000000000000000000, -1.000000000000000000 ) ) ;
#44 =( GEOMETRIC_REPRESENTATION_CONTEXT ( 3 ) GLOBAL_UNCERTAINTY_ASSIGNED_CONTEXT ( ( #98 ) ) GLOBAL_UNIT_ASSIGNED_CONTEXT ( ( #311, #153, #130 ) ) REPRESENTATION_CONTEXT ( 'NONE', 'WORKASPACE' ) );
#45 = CARTESIAN_POINT ( 'NONE',  ( 3.500000000000003109, -1.800000000000000044, 3.500000000000023981 ) ) ;
#46 = ADVANCED_FACE ( 'NONE', ( #179 ), #119, .T. ) ;
#47 = CIRCLE ( 'NONE', #61, 1.250000000000000222 ) ;
#48 = FACE_OUTER_BOUND ( 'NONE', #84, .T. ) ;
#49 = CARTESIAN_POINT ( 'NONE',  ( 1.950000000000002842, 4.384062043356597549, 1.950000000000024158 ) ) ;
#50 = VERTEX_POINT ( 'NONE', #9 ) ;
#51 = CARTESIAN_POINT ( 'NONE',  ( 1.950000000000003508, -1.799999999999999600, 5.050000000000023803 ) ) ;
#52 = DIRECTION ( 'NONE',  ( -0.000000000000000000, -1.000000000000000000, -0.000000000000000000 ) ) ;
#53 = PRODUCT ( 'standoff_OPEN', 'standoff_OPEN', '', ( #198 ) ) ;
#54 = FILL_AREA_STYLE_COLOUR ( '', #191 ) ;
#55 = ORIENTED_EDGE ( 'NONE', *, *, #36, .F. ) ;
#56 = VECTOR ( 'NONE', #306, 1000.000000000000000 ) ;
#57 = EDGE_CURVE ( 'NONE', #135, #187, #69, .T. ) ;
#58 = ORIENTED_EDGE ( 'NONE', *, *, #156, .F. ) ;
#59 = PLANE ( 'NONE',  #302 ) ;
#60 = ORIENTED_EDGE ( 'NONE', *, *, #156, .T. ) ;
#61 = AXIS2_PLACEMENT_3D ( 'NONE', #45, #126, #168 ) ;
#62 = DIRECTION ( 'NONE',  ( 1.000000000000000000, 0.000000000000000000, -0.000000000000000000 ) ) ;
#63 = ORIENTED_EDGE ( 'NONE', *, *, #4, .T. ) ;
#64 = DIRECTION ( 'NONE',  ( 0.000000000000000000, -1.000000000000000000, 0.000000000000000000 ) ) ;
#65 = DIRECTION ( 'NONE',  ( -1.000000000000000000, -0.000000000000000000, -0.000000000000000000 ) ) ;
#66 = ADVANCED_FACE ( 'NONE', ( #152 ), #244, .F. ) ;
#67 = CARTESIAN_POINT ( 'NONE',  ( 1.950000000000002842, -1.799999999999999600, 1.950000000000024158 ) ) ;
#68 = VECTOR ( 'NONE', #199, 1000.000000000000000 ) ;
#69 = LINE ( 'NONE', #35, #172 ) ;
#70 = ADVANCED_FACE ( 'NONE', ( #48 ), #184, .F. ) ;
#71 = CARTESIAN_POINT ( 'NONE',  ( 3.500000000000003109, 0.000000000000000000, 3.500000000000023981 ) ) ;
#72 = EDGE_CURVE ( 'NONE', #187, #328, #12, .T. ) ;
#73 = CARTESIAN_POINT ( 'NONE',  ( 3.500000000000003109, 0.000000000000000000, 4.750000000000023981 ) ) ;
#74 = VERTEX_POINT ( 'NONE', #90 ) ;
#75 = VERTEX_POINT ( 'NONE', #271 ) ;
#76 = CARTESIAN_POINT ( 'NONE',  ( 1.950000000000002842, -1.799999999999999600, 1.950000000000024158 ) ) ;
#77 =( NAMED_UNIT ( * ) SI_UNIT ( $, .STERADIAN. ) SOLID_ANGLE_UNIT ( ) );
#78 = STYLED_ITEM ( 'NONE', ( #133 ), #128 ) ;
#79 = CIRCLE ( 'NONE', #270, 1.250000000000000222 ) ;
#80 = CIRCLE ( 'NONE', #259, 0.8500000000000017542 ) ;
#81 = VERTEX_POINT ( 'NONE', #274 ) ;
#82 = EDGE_CURVE ( 'NONE', #328, #187, #275, .T. ) ;
#83 = APPLICATION_PROTOCOL_DEFINITION ( 'draft international standard', 'automotive_design', 1998, #313 ) ;
#84 = EDGE_LOOP ( 'NONE', ( #120, #331, #318, #231 ) ) ;
#85 = ORIENTED_EDGE ( 'NONE', *, *, #188, .T. ) ;
#86 = PRODUCT_DEFINITION ( 'UNKNOWN', '', #264, #232 ) ;
#87 = FACE_OUTER_BOUND ( 'NONE', #319, .T. ) ;
#88 = ORIENTED_EDGE ( 'NONE', *, *, #178, .F. ) ;
#89 = VECTOR ( 'NONE', #278, 1000.000000000000000 ) ;
#90 = CARTESIAN_POINT ( 'NONE',  ( 3.500000000000003109, -1.800000000000000044, 4.750000000000023981 ) ) ;
#91 = CARTESIAN_POINT ( 'NONE',  ( 3.500000000000003109, 0.000000000000000000, 3.500000000000023981 ) ) ;
#92 = ORIENTED_EDGE ( 'NONE', *, *, #289, .F. ) ;
#93 = VECTOR ( 'NONE', #192, 1000.000000000000000 ) ;
#94 = ORIENTED_EDGE ( 'NONE', *, *, #4, .F. ) ;
#95 = EDGE_CURVE ( 'NONE', #203, #25, #114, .T. ) ;
#96 = CARTESIAN_POINT ( 'NONE',  ( 1.950000000000002842, -17.30000000000000071, 1.950000000000024158 ) ) ;
#97 = CARTESIAN_POINT ( 'NONE',  ( 3.500000000000003109, -1.800000000000000044, 3.500000000000023981 ) ) ;
#98 = UNCERTAINTY_MEASURE_WITH_UNIT (LENGTH_MEASURE( 1.000000000000000082E-05 ), #311, 'distance_accuracy_value', 'NONE');
#99 = ORIENTED_EDGE ( 'NONE', *, *, #224, .F. ) ;
#100 = ORIENTED_EDGE ( 'NONE', *, *, #219, .T. ) ;
#101 = ORIENTED_EDGE ( 'NONE', *, *, #23, .F. ) ;
#102 = EDGE_LOOP ( 'NONE', ( #132, #143, #109, #158 ) ) ;
#103 = AXIS2_PLACEMENT_3D ( 'NONE', #159, #180, #233 ) ;
#104 = VECTOR ( 'NONE', #195, 1000.000000000000000 ) ;
#105 = PRESENTATION_STYLE_ASSIGNMENT (( #41 ) ) ;
#106 = ORIENTED_EDGE ( 'NONE', *, *, #72, .F. ) ;
#107 = UNCERTAINTY_MEASURE_WITH_UNIT (LENGTH_MEASURE( 1.000000000000000082E-05 ), #229, 'distance_accuracy_value', 'NONE');
#108 = DIRECTION ( 'NONE',  ( 0.000000000000000000, 0.000000000000000000, -1.000000000000000000 ) ) ;
#109 = ORIENTED_EDGE ( 'NONE', *, *, #149, .T. ) ;
#110 = DIRECTION ( 'NONE',  ( 0.000000000000000000, 0.000000000000000000, 1.000000000000000000 ) ) ;
#111 = PRESENTATION_LAYER_ASSIGNMENT (  '', '', ( #78 ) ) ;
#112 = MANIFOLD_SOLID_BREP ( 'Fase1', #310 ) ;
#113 = AXIS2_PLACEMENT_3D ( 'NONE', #129, #251, #171 ) ;
#114 = LINE ( 'NONE', #186, #2 ) ;
#115 = CARTESIAN_POINT ( 'NONE',  ( 1.950000000000003508, -1.799999999999999600, 5.050000000000023803 ) ) ;
#116 = DIRECTION ( 'NONE',  ( -0.000000000000000000, -1.000000000000000000, -0.000000000000000000 ) ) ;
#117 = CARTESIAN_POINT ( 'NONE',  ( 0.000000000000000000, -1.800000000000000044, 0.000000000000000000 ) ) ;
#118 = EDGE_LOOP ( 'NONE', ( #257, #17, #85, #142 ) ) ;
#119 = CYLINDRICAL_SURFACE ( 'NONE', #32, 1.250000000000000222 ) ;
#120 = ORIENTED_EDGE ( 'NONE', *, *, #298, .F. ) ;
#121 = CARTESIAN_POINT ( 'NONE',  ( 1.950000000000003508, -17.30000000000000071, 5.050000000000023803 ) ) ;
#122 = PRODUCT_RELATED_PRODUCT_CATEGORY ( 'part', '', ( #53 ) ) ;
#123 = PRODUCT_DEFINITION_SHAPE ( 'NONE', 'NONE',  #86 ) ;
#124 = ADVANCED_FACE ( 'NONE', ( #282 ), #154, .T. ) ;
#125 = ORIENTED_EDGE ( 'NONE', *, *, #266, .F. ) ;
#126 = DIRECTION ( 'NONE',  ( 0.000000000000000000, 1.000000000000000000, 0.000000000000000000 ) ) ;
#127 = ADVANCED_FACE ( 'NONE', ( #6, #197 ), #245, .T. ) ;
#128 = ADVANCED_BREP_SHAPE_REPRESENTATION ( 'standoff_OPEN', ( #112, #200 ), #44 ) ;
#129 = CARTESIAN_POINT ( 'NONE',  ( 3.500000000000003109, 0.000000000000000000, 3.500000000000023981 ) ) ;
#130 =( NAMED_UNIT ( * ) SI_UNIT ( $, .STERADIAN. ) SOLID_ANGLE_UNIT ( ) );
#131 = MECHANICAL_DESIGN_GEOMETRIC_PRESENTATION_REPRESENTATION (  '', ( #78 ), #206 ) ;
#132 = ORIENTED_EDGE ( 'NONE', *, *, #23, .T. ) ;
#133 = PRESENTATION_STYLE_ASSIGNMENT (( #176 ) ) ;
#134 = EDGE_CURVE ( 'NONE', #25, #81, #19, .T. ) ;
#135 = VERTEX_POINT ( 'NONE', #145 ) ;
#136 = ORIENTED_EDGE ( 'NONE', *, *, #219, .F. ) ;
#137 = CARTESIAN_POINT ( 'NONE',  ( 3.500000000000003109, -1.800000000000000044, 2.250000000000023537 ) ) ;
#138 = DIRECTION ( 'NONE',  ( 0.000000000000000000, 0.000000000000000000, 1.000000000000000000 ) ) ;
#139 = LINE ( 'NONE', #76, #68 ) ;
#140 = DIRECTION ( 'NONE',  ( -1.000000000000000000, 0.000000000000000000, 0.000000000000000000 ) ) ;
#141 = AXIS2_PLACEMENT_3D ( 'NONE', #214, #18, #321 ) ;
#142 = ORIENTED_EDGE ( 'NONE', *, *, #287, .F. ) ;
#143 = ORIENTED_EDGE ( 'NONE', *, *, #298, .T. ) ;
#144 = DIRECTION ( 'NONE',  ( 1.000000000000000000, 0.000000000000000000, -2.098455817713880305E-16 ) ) ;
#145 = CARTESIAN_POINT ( 'NONE',  ( 3.500000000000003109, 0.000000000000000000, 4.350000000000025402 ) ) ;
#146 = LINE ( 'NONE', #255, #104 ) ;
#147 = ORIENTED_EDGE ( 'NONE', *, *, #287, .T. ) ;
#148 = FACE_OUTER_BOUND ( 'NONE', #280, .T. ) ;
#149 = EDGE_CURVE ( 'NONE', #14, #75, #215, .T. ) ;
#150 = CARTESIAN_POINT ( 'NONE',  ( 5.050000000000003375, -1.799999999999999600, 1.950000000000024158 ) ) ;
#151 = CARTESIAN_POINT ( 'NONE',  ( 3.500000000000003109, -0.4000000000000006328, 4.750000000000023981 ) ) ;
#152 = FACE_OUTER_BOUND ( 'NONE', #118, .T. ) ;
#153 =( NAMED_UNIT ( * ) PLANE_ANGLE_UNIT ( ) SI_UNIT ( $, .RADIAN. ) );
#154 = CYLINDRICAL_SURFACE ( 'NONE', #237, 1.250000000000000222 ) ;
#155 = CONICAL_SURFACE ( 'NONE', #305, 0.8500000000000017542, 0.7853981633974456145 ) ;
#156 = EDGE_CURVE ( 'NONE', #135, #263, #80, .T. ) ;
#157 = VECTOR ( 'NONE', #227, 1000.000000000000000 ) ;
#158 = ORIENTED_EDGE ( 'NONE', *, *, #279, .T. ) ;
#159 = CARTESIAN_POINT ( 'NONE',  ( 0.000000000000000000, -17.30000000000000071, 0.000000000000000000 ) ) ;
#160 = PLANE ( 'NONE',  #103 ) ;
#161 = AXIS2_PLACEMENT_3D ( 'NONE', #71, #308, #226 ) ;
#162 = PLANE ( 'NONE',  #161 ) ;
#163 = ORIENTED_EDGE ( 'NONE', *, *, #254, .T. ) ;
#164 =( NAMED_UNIT ( * ) SI_UNIT ( $, .STERADIAN. ) SOLID_ANGLE_UNIT ( ) );
#165 = DIRECTION ( 'NONE',  ( 0.000000000000000000, 0.000000000000000000, -1.000000000000000000 ) ) ;
#166 = FILL_AREA_STYLE_COLOUR ( '', #267 ) ;
#167 =( LENGTH_UNIT ( ) NAMED_UNIT ( * ) SI_UNIT ( .MILLI., .METRE. ) );
#168 = DIRECTION ( 'NONE',  ( 0.000000000000000000, 0.000000000000000000, 1.000000000000000000 ) ) ;
#169 = CARTESIAN_POINT ( 'NONE',  ( 5.050000000000003375, 4.384062043356597549, 5.050000000000023803 ) ) ;
#170 = AXIS2_PLACEMENT_3D ( 'NONE', #207, #110, #62 ) ;
#171 = DIRECTION ( 'NONE',  ( 0.000000000000000000, 0.000000000000000000, -1.000000000000000000 ) ) ;
#172 = VECTOR ( 'NONE', #291, 1000.000000000000114 ) ;
#173 = ORIENTED_EDGE ( 'NONE', *, *, #72, .T. ) ;
#174 = EDGE_LOOP ( 'NONE', ( #42, #100, #163, #246 ) ) ;
#175 = CARTESIAN_POINT ( 'NONE',  ( 0.000000000000000000, 0.000000000000000000, 0.000000000000000000 ) ) ;
#176 = SURFACE_STYLE_USAGE ( .BOTH. , #314 ) ;
#177 = FACE_OUTER_BOUND ( 'NONE', #205, .T. ) ;
#178 = EDGE_CURVE ( 'NONE', #27, #74, #47, .T. ) ;
#179 = FACE_OUTER_BOUND ( 'NONE', #174, .T. ) ;
#180 = DIRECTION ( 'NONE',  ( 0.000000000000000000, 1.000000000000000000, 0.000000000000000000 ) ) ;
#181 = CARTESIAN_POINT ( 'NONE',  ( 3.500000000000003109, 0.000000000000000000, 2.650000000000022116 ) ) ;
#182 = DIRECTION ( 'NONE',  ( -1.000000000000000000, 0.000000000000000000, 0.000000000000000000 ) ) ;
#183 = AXIS2_PLACEMENT_3D ( 'NONE', #324, #64, #190 ) ;
#184 = PLANE ( 'NONE',  #230 ) ;
#185 = ADVANCED_FACE ( 'NONE', ( #87 ), #162, .T. ) ;
#186 = CARTESIAN_POINT ( 'NONE',  ( 5.050000000000003375, 4.384062043356597549, 1.950000000000024158 ) ) ;
#187 = VERTEX_POINT ( 'NONE', #151 ) ;
#188 = EDGE_CURVE ( 'NONE', #218, #50, #217, .T. ) ;
#189 = DIRECTION ( 'NONE',  ( 0.000000000000000000, 0.000000000000000000, -1.000000000000000000 ) ) ;
#190 = DIRECTION ( 'NONE',  ( 0.000000000000000000, 0.000000000000000000, 1.000000000000000000 ) ) ;
#191 = COLOUR_RGB ( '',0.7921568627450980005, 0.8196078431372548767, 0.9333333333333333481 ) ;
#192 = DIRECTION ( 'NONE',  ( 1.000000000000000000, 0.000000000000000000, 0.000000000000000000 ) ) ;
#193 = ORIENTED_EDGE ( 'NONE', *, *, #224, .T. ) ;
#194 = DIRECTION ( 'NONE',  ( -0.000000000000000000, -1.000000000000000000, -0.000000000000000000 ) ) ;
#195 = DIRECTION ( 'NONE',  ( -0.000000000000000000, -0.000000000000000000, -1.000000000000000000 ) ) ;
#196 = CARTESIAN_POINT ( 'NONE',  ( 5.050000000000003375, -1.799999999999999600, 1.950000000000024158 ) ) ;
#197 = FACE_OUTER_BOUND ( 'NONE', #102, .T. ) ;
#198 = PRODUCT_CONTEXT ( 'NONE', #283, 'mechanical' ) ;
#199 = DIRECTION ( 'NONE',  ( 2.098455817713880305E-16, -0.000000000000000000, 1.000000000000000000 ) ) ;
#200 = AXIS2_PLACEMENT_3D ( 'NONE', #175, #30, #258 ) ;
#201 = VECTOR ( 'NONE', #194, 1000.000000000000000 ) ;
#202 = PRESENTATION_LAYER_ASSIGNMENT (  '', '', ( #315 ) ) ;
#203 = VERTEX_POINT ( 'NONE', #196 ) ;
#204 = EDGE_LOOP ( 'NONE', ( #88, #249 ) ) ;
#205 = EDGE_LOOP ( 'NONE', ( #125, #216, #99, #286 ) ) ;
#206 =( GEOMETRIC_REPRESENTATION_CONTEXT ( 3 ) GLOBAL_UNCERTAINTY_ASSIGNED_CONTEXT ( ( #107 ) ) GLOBAL_UNIT_ASSIGNED_CONTEXT ( ( #229, #288, #77 ) ) REPRESENTATION_CONTEXT ( 'NONE', 'WORKASPACE' ) );
#207 = CARTESIAN_POINT ( 'NONE',  ( 1.950000000000002842, 4.384062043356597549, 1.950000000000024158 ) ) ;
#208 = VECTOR ( 'NONE', #228, 1000.000000000000000 ) ;
#209 = LINE ( 'NONE', #49, #89 ) ;
#210 = CARTESIAN_POINT ( 'NONE',  ( 1.950000000000002842, -17.30000000000000071, 1.950000000000024158 ) ) ;
#211 = DIRECTION ( 'NONE',  ( -1.000000000000000000, 0.000000000000000000, -0.000000000000000000 ) ) ;
#212 = SURFACE_SIDE_STYLE ('',( #242 ) ) ;
#213 = CARTESIAN_POINT ( 'NONE',  ( 1.950000000000002842, 4.384062043356597549, 1.950000000000024158 ) ) ;
#214 = CARTESIAN_POINT ( 'NONE',  ( 3.500000000000003109, -0.4000000000000006328, 3.500000000000023981 ) ) ;
#215 = LINE ( 'NONE', #51, #56 ) ;
#216 = ORIENTED_EDGE ( 'NONE', *, *, #134, .F. ) ;
#217 = LINE ( 'NONE', #121, #93 ) ;
#218 = VERTEX_POINT ( 'NONE', #256 ) ;
#219 = EDGE_CURVE ( 'NONE', #187, #74, #37, .T. ) ;
#220 = DIRECTION ( 'NONE',  ( 0.000000000000000000, 0.000000000000000000, 1.000000000000000000 ) ) ;
#221 = ADVANCED_FACE ( 'NONE', ( #148 ), #20, .T. ) ;
#222 = EDGE_LOOP ( 'NONE', ( #136, #173, #295, #34 ) ) ;
#223 = DIRECTION ( 'NONE',  ( 0.000000000000000000, -1.000000000000000000, 0.000000000000000000 ) ) ;
#224 = EDGE_CURVE ( 'NONE', #50, #25, #146, .T. ) ;
#225 = LINE ( 'NONE', #303, #284 ) ;
#226 = DIRECTION ( 'NONE',  ( 0.000000000000000000, -0.000000000000000000, 1.000000000000000000 ) ) ;
#227 = DIRECTION ( 'NONE',  ( 0.000000000000000000, 0.000000000000000000, -1.000000000000000000 ) ) ;
#228 = DIRECTION ( 'NONE',  ( -0.000000000000000000, -1.000000000000000000, -0.000000000000000000 ) ) ;
#229 =( LENGTH_UNIT ( ) NAMED_UNIT ( * ) SI_UNIT ( .MILLI., .METRE. ) );
#230 = AXIS2_PLACEMENT_3D ( 'NONE', #213, #144, #43 ) ;
#231 = ORIENTED_EDGE ( 'NONE', *, *, #250, .F. ) ;
#232 = PRODUCT_DEFINITION_CONTEXT ( 'detailed design', #313, 'design' ) ;
#233 = DIRECTION ( 'NONE',  ( 0.000000000000000000, -0.000000000000000000, 1.000000000000000000 ) ) ;
#234 = VECTOR ( 'NONE', #22, 1000.000000000000000 ) ;
#235 = LINE ( 'NONE', #320, #253 ) ;
#236 = CARTESIAN_POINT ( 'NONE',  ( 5.050000000000003375, 4.384062043356597549, 1.950000000000024158 ) ) ;
#237 = AXIS2_PLACEMENT_3D ( 'NONE', #91, #300, #165 ) ;
#238 = CARTESIAN_POINT ( 'NONE',  ( 3.500000000000003109, 0.000000000000000000, 3.500000000000023981 ) ) ;
#239 = ORIENTED_EDGE ( 'NONE', *, *, #279, .F. ) ;
#240 = SURFACE_STYLE_FILL_AREA ( #332 ) ;
#241 = DIRECTION ( 'NONE',  ( 0.000000000000000000, 1.000000000000000000, 0.000000000000000000 ) ) ;
#242 = SURFACE_STYLE_FILL_AREA ( #40 ) ;
#243 = MECHANICAL_DESIGN_GEOMETRIC_PRESENTATION_REPRESENTATION (  '', ( #315 ), #262 ) ;
#244 = PLANE ( 'NONE',  #29 ) ;
#245 = PLANE ( 'NONE',  #276 ) ;
#246 = ORIENTED_EDGE ( 'NONE', *, *, #326, .F. ) ;
#247 =( NAMED_UNIT ( * ) PLANE_ANGLE_UNIT ( ) SI_UNIT ( $, .RADIAN. ) );
#248 = VECTOR ( 'NONE', #292, 1000.000000000000114 ) ;
#249 = ORIENTED_EDGE ( 'NONE', *, *, #254, .F. ) ;
#250 = EDGE_CURVE ( 'NONE', #14, #218, #225, .T. ) ;
#251 = DIRECTION ( 'NONE',  ( 0.000000000000000000, -1.000000000000000000, 0.000000000000000000 ) ) ;
#252 = LINE ( 'NONE', #150, #157 ) ;
#253 = VECTOR ( 'NONE', #182, 1000.000000000000000 ) ;
#254 = EDGE_CURVE ( 'NONE', #74, #27, #79, .T. ) ;
#255 = CARTESIAN_POINT ( 'NONE',  ( 5.050000000000003375, -17.30000000000000071, 1.950000000000024158 ) ) ;
#256 = CARTESIAN_POINT ( 'NONE',  ( 1.950000000000003508, -17.30000000000000071, 5.050000000000023803 ) ) ;
#257 = ORIENTED_EDGE ( 'NONE', *, *, #149, .F. ) ;
#258 = DIRECTION ( 'NONE',  ( 1.000000000000000000, 0.000000000000000000, 0.000000000000000000 ) ) ;
#259 = AXIS2_PLACEMENT_3D ( 'NONE', #327, #330, #325 ) ;
#260 = VERTEX_POINT ( 'NONE', #67 ) ;
#261 = CIRCLE ( 'NONE', #10, 0.8500000000000017542 ) ;
#262 =( GEOMETRIC_REPRESENTATION_CONTEXT ( 3 ) GLOBAL_UNCERTAINTY_ASSIGNED_CONTEXT ( ( #297 ) ) GLOBAL_UNIT_ASSIGNED_CONTEXT ( ( #167, #247, #164 ) ) REPRESENTATION_CONTEXT ( 'NONE', 'WORKASPACE' ) );
#263 = VERTEX_POINT ( 'NONE', #277 ) ;
#264 = PRODUCT_DEFINITION_FORMATION_WITH_SPECIFIED_SOURCE ( 'ANY', '', #53, .NOT_KNOWN. ) ;
#265 = DIRECTION ( 'NONE',  ( -0.000000000000000000, -1.000000000000000000, -0.000000000000000000 ) ) ;
#266 = EDGE_CURVE ( 'NONE', #81, #218, #11, .T. ) ;
#267 = COLOUR_RGB ( '',0.7921568627450980005, 0.8196078431372548767, 0.9333333333333333481 ) ;
#268 = ORIENTED_EDGE ( 'NONE', *, *, #57, .T. ) ;
#269 = CARTESIAN_POINT ( 'NONE',  ( 5.050000000000003375, -17.30000000000000071, 1.950000000000024158 ) ) ;
#270 = AXIS2_PLACEMENT_3D ( 'NONE', #97, #281, #220 ) ;
#271 = CARTESIAN_POINT ( 'NONE',  ( 5.050000000000003375, -1.799999999999999600, 5.050000000000023803 ) ) ;
#272 = FACE_OUTER_BOUND ( 'NONE', #307, .T. ) ;
#273 = DIRECTION ( 'NONE',  ( 0.000000000000000000, -0.000000000000000000, 1.000000000000000000 ) ) ;
#274 = CARTESIAN_POINT ( 'NONE',  ( 1.950000000000002842, -17.30000000000000071, 1.950000000000024158 ) ) ;
#275 = CIRCLE ( 'NONE', #183, 1.250000000000000222 ) ;
#276 = AXIS2_PLACEMENT_3D ( 'NONE', #117, #16, #273 ) ;
#277 = CARTESIAN_POINT ( 'NONE',  ( 3.500000000000003109, 0.000000000000000000, 2.650000000000022116 ) ) ;
#278 = DIRECTION ( 'NONE',  ( -0.000000000000000000, -1.000000000000000000, -0.000000000000000000 ) ) ;
#279 = EDGE_CURVE ( 'NONE', #75, #203, #252, .T. ) ;
#280 = EDGE_LOOP ( 'NONE', ( #58, #268, #322, #94 ) ) ;
#281 = DIRECTION ( 'NONE',  ( 0.000000000000000000, 1.000000000000000000, 0.000000000000000000 ) ) ;
#282 = FACE_OUTER_BOUND ( 'NONE', #222, .T. ) ;
#283 = APPLICATION_CONTEXT ( 'automotive_design' ) ;
#284 = VECTOR ( 'NONE', #301, 1000.000000000000000 ) ;
#285 = EDGE_LOOP ( 'NONE', ( #293, #55, #63, #106 ) ) ;
#286 = ORIENTED_EDGE ( 'NONE', *, *, #188, .F. ) ;
#287 = EDGE_CURVE ( 'NONE', #75, #50, #317, .T. ) ;
#288 =( NAMED_UNIT ( * ) PLANE_ANGLE_UNIT ( ) SI_UNIT ( $, .RADIAN. ) );
#289 = EDGE_CURVE ( 'NONE', #260, #81, #209, .T. ) ;
#290 = EDGE_LOOP ( 'NONE', ( #101, #38, #31, #92 ) ) ;
#291 = DIRECTION ( 'NONE',  ( 8.659560562354908206E-17, -0.7071067811865493491, 0.7071067811865455743 ) ) ;
#292 = DIRECTION ( 'NONE',  ( 0.000000000000000000, -0.7071067811865493491, -0.7071067811865455743 ) ) ;
#293 = ORIENTED_EDGE ( 'NONE', *, *, #57, .F. ) ;
#294 = PLANE ( 'NONE',  #170 ) ;
#295 = ORIENTED_EDGE ( 'NONE', *, *, #326, .T. ) ;
#296 = ADVANCED_FACE ( 'NONE', ( #13 ), #155, .T. ) ;
#297 = UNCERTAINTY_MEASURE_WITH_UNIT (LENGTH_MEASURE( 1.000000000000000082E-05 ), #167, 'distance_accuracy_value', 'NONE');
#298 = EDGE_CURVE ( 'NONE', #260, #14, #139, .T. ) ;
#299 = ORIENTED_EDGE ( 'NONE', *, *, #95, .F. ) ;
#300 = DIRECTION ( 'NONE',  ( -0.000000000000000000, -1.000000000000000000, -0.000000000000000000 ) ) ;
#301 = DIRECTION ( 'NONE',  ( -0.000000000000000000, -1.000000000000000000, -0.000000000000000000 ) ) ;
#302 = AXIS2_PLACEMENT_3D ( 'NONE', #236, #140, #138 ) ;
#303 = CARTESIAN_POINT ( 'NONE',  ( 1.950000000000003508, 4.384062043356597549, 5.050000000000023803 ) ) ;
#304 = VECTOR ( 'NONE', #65, 1000.000000000000000 ) ;
#305 = AXIS2_PLACEMENT_3D ( 'NONE', #309, #223, #26 ) ;
#306 = DIRECTION ( 'NONE',  ( 1.000000000000000000, -0.000000000000000000, 0.000000000000000000 ) ) ;
#307 = EDGE_LOOP ( 'NONE', ( #239, #147, #193, #299 ) ) ;
#308 = DIRECTION ( 'NONE',  ( 0.000000000000000000, 1.000000000000000000, 0.000000000000000000 ) ) ;
#309 = CARTESIAN_POINT ( 'NONE',  ( 3.500000000000003109, 0.000000000000000000, 3.500000000000023981 ) ) ;
#310 = CLOSED_SHELL ( 'NONE', ( #221, #46, #70, #66, #21, #24, #39, #127, #124, #185, #296 ) ) ;
#311 =( LENGTH_UNIT ( ) NAMED_UNIT ( * ) SI_UNIT ( .MILLI., .METRE. ) );
#312 = FACE_OUTER_BOUND ( 'NONE', #290, .T. ) ;
#313 = APPLICATION_CONTEXT ( 'automotive_design' ) ;
#314 = SURFACE_SIDE_STYLE ('',( #240 ) ) ;
#315 = STYLED_ITEM ( 'NONE', ( #105 ), #112 ) ;
#316 = APPLICATION_PROTOCOL_DEFINITION ( 'draft international standard', 'automotive_design', 1998, #283 ) ;
#317 = LINE ( 'NONE', #169, #201 ) ;
#318 = ORIENTED_EDGE ( 'NONE', *, *, #266, .T. ) ;
#319 = EDGE_LOOP ( 'NONE', ( #3, #60 ) ) ;
#320 = CARTESIAN_POINT ( 'NONE',  ( 1.950000000000002842, -1.799999999999999600, 1.950000000000024158 ) ) ;
#321 = DIRECTION ( 'NONE',  ( 0.000000000000000000, 0.000000000000000000, 1.000000000000000000 ) ) ;
#322 = ORIENTED_EDGE ( 'NONE', *, *, #82, .F. ) ;
#323 = CARTESIAN_POINT ( 'NONE',  ( 1.950000000000003508, 4.384062043356597549, 5.050000000000023803 ) ) ;
#324 = CARTESIAN_POINT ( 'NONE',  ( 3.500000000000003109, -0.4000000000000006328, 3.500000000000023981 ) ) ;
#325 = DIRECTION ( 'NONE',  ( 0.000000000000000000, 0.000000000000000000, 1.000000000000000000 ) ) ;
#326 = EDGE_CURVE ( 'NONE', #328, #27, #28, .T. ) ;
#327 = CARTESIAN_POINT ( 'NONE',  ( 3.500000000000003109, 0.000000000000000000, 3.500000000000023981 ) ) ;
#328 = VERTEX_POINT ( 'NONE', #329 ) ;
#329 = CARTESIAN_POINT ( 'NONE',  ( 3.500000000000003109, -0.4000000000000006328, 2.250000000000023537 ) ) ;
#330 = DIRECTION ( 'NONE',  ( 0.000000000000000000, 1.000000000000000000, 0.000000000000000000 ) ) ;
#331 = ORIENTED_EDGE ( 'NONE', *, *, #289, .T. ) ;
#332 = FILL_AREA_STYLE ('',( #54 ) ) ;
ENDSEC;
END-ISO-10303-21;
